Comme-Bold.ufo
<glyph name="exclam" format="1">
  <advance width="753"/>
  <unicode hex="0021"/>
  <outline>
    <contour>
      <point x="320" y="460" type="line"/>
      <point x="436" y="460" type="line"/>
      <point x="496" y="1323" type="line"/>
      <point x="496" y="1544" type="line"/>
      <point x="252" y="1544" type="line"/>
      <point x="252" y="1323" type="line"/>
    </contour>
    <contour>
      <point x="371" y="-9" type="curve" smooth="yes"/>
      <point x="460" y="-9"/>
      <point x="523" y="65"/>
      <point x="523" y="148" type="curve" smooth="yes"/>
      <point x="523" y="233"/>
      <point x="460" y="304"/>
      <point x="371" y="304" type="curve" smooth="yes"/>
      <point x="282" y="304"/>
      <point x="218" y="233"/>
      <point x="218" y="148" type="curve" smooth="yes"/>
      <point x="218" y="65"/>
      <point x="282" y="-9"/>
    </contour>
  </outline>
</glyph>
<glyph name="quotedbl" format="1">
  <advance width="831"/>
  <unicode hex="0022"/>
  <outline>
    <contour>
      <point x="181" y="929" type="line"/>
      <point x="323" y="929" type="line"/>
      <point x="368" y="1551" type="line"/>
      <point x="92" y="1551" type="line"/>
    </contour>
    <contour>
      <point x="560" y="929" type="line"/>
      <point x="702" y="929" type="line"/>
      <point x="748" y="1551" type="line"/>
      <point x="472" y="1551" type="line"/>
    </contour>
  </outline>
</glyph>
<glyph name="percent" format="1">
  <advance width="2094"/>
  <unicode hex="0025"/>
  <outline>
    <contour>
      <point x="495" y="893" type="curve" smooth="yes"/>
      <point x="371" y="893"/>
      <point x="300" y="996"/>
      <point x="300" y="1131" type="curve" smooth="yes"/>
      <point x="300" y="1263"/>
      <point x="371" y="1364"/>
      <point x="495" y="1364" type="curve" smooth="yes"/>
      <point x="616" y="1364"/>
      <point x="685" y="1267"/>
      <point x="685" y="1131" type="curve" smooth="yes"/>
      <point x="685" y="998"/>
      <point x="617" y="893"/>
    </contour>
    <contour>
      <point x="491" y="719" type="curve" smooth="yes"/>
      <point x="734" y="719"/>
      <point x="889" y="898"/>
      <point x="889" y="1127" type="curve" smooth="yes"/>
      <point x="889" y="1359"/>
      <point x="737" y="1533"/>
      <point x="491" y="1533" type="curve" smooth="yes"/>
      <point x="248" y="1533"/>
      <point x="105" y="1356"/>
      <point x="105" y="1127" type="curve" smooth="yes"/>
      <point x="105" y="898"/>
      <point x="244" y="719"/>
    </contour>
    <contour>
      <point x="513" y="0" type="line"/>
      <point x="737" y="0" type="line"/>
      <point x="1579" y="1513" type="line"/>
      <point x="1363" y="1513" type="line"/>
    </contour>
    <contour>
      <point x="1610" y="145" type="curve" smooth="yes"/>
      <point x="1485" y="145"/>
      <point x="1414" y="248"/>
      <point x="1414" y="382" type="curve" smooth="yes"/>
      <point x="1414" y="514"/>
      <point x="1485" y="616"/>
      <point x="1610" y="616" type="curve" smooth="yes"/>
      <point x="1731" y="616"/>
      <point x="1800" y="518"/>
      <point x="1800" y="382" type="curve" smooth="yes"/>
      <point x="1800" y="250"/>
      <point x="1732" y="145"/>
    </contour>
    <contour>
      <point x="1605" y="-30" type="curve" smooth="yes"/>
      <point x="1849" y="-30"/>
      <point x="2004" y="149"/>
      <point x="2004" y="380" type="curve" smooth="yes"/>
      <point x="2004" y="612"/>
      <point x="1852" y="783"/>
      <point x="1605" y="783" type="curve" smooth="yes"/>
      <point x="1363" y="783"/>
      <point x="1209" y="607"/>
      <point x="1209" y="380" type="curve" smooth="yes"/>
      <point x="1209" y="149"/>
      <point x="1359" y="-30"/>
    </contour>
  </outline>
</glyph>
<glyph name="ampersand" format="1">
  <advance width="1420"/>
  <unicode hex="0026"/>
  <outline>
    <contour>
      <point x="1190" y="-34" type="line"/>
      <point x="1357" y="106" type="line"/>
      <point x="1176" y="301" type="line"/>
      <point x="1268" y="419"/>
      <point x="1339" y="552"/>
      <point x="1403" y="664" type="curve"/>
      <point x="1241" y="777" type="line"/>
      <point x="1176" y="653"/>
      <point x="1109" y="543"/>
      <point x="1040" y="452" type="curve"/>
      <point x="697" y="822" type="line"/>
      <point x="863" y="910"/>
      <point x="1024" y="1054"/>
      <point x="1024" y="1215" type="curve" smooth="yes"/>
      <point x="1024" y="1436"/>
      <point x="825" y="1527"/>
      <point x="640" y="1527" type="curve" smooth="yes"/>
      <point x="436" y="1527"/>
      <point x="237" y="1411"/>
      <point x="237" y="1179" type="curve" smooth="yes"/>
      <point x="237" y="1045"/>
      <point x="340" y="914"/>
      <point x="403" y="850" type="curve"/>
      <point x="269" y="763"/>
      <point x="95" y="644"/>
      <point x="95" y="445" type="curve" smooth="yes"/>
      <point x="95" y="132"/>
      <point x="346" y="-17"/>
      <point x="598" y="-17" type="curve" smooth="yes"/>
      <point x="776" y="-17"/>
      <point x="913" y="47"/>
      <point x="1026" y="143" type="curve"/>
    </contour>
    <contour>
      <point x="607" y="181" type="curve" smooth="yes"/>
      <point x="452" y="181"/>
      <point x="342" y="263"/>
      <point x="342" y="424" type="curve" smooth="yes"/>
      <point x="342" y="557"/>
      <point x="432" y="632"/>
      <point x="525" y="693" type="curve"/>
      <point x="891" y="295" type="line"/>
      <point x="801" y="217"/>
      <point x="710" y="181"/>
    </contour>
    <contour>
      <point x="592" y="952" type="curve"/>
      <point x="504" y="1055"/>
      <point x="480" y="1114"/>
      <point x="480" y="1205" type="curve" smooth="yes"/>
      <point x="480" y="1293"/>
      <point x="549" y="1344"/>
      <point x="635" y="1345" type="curve" smooth="yes"/>
      <point x="727" y="1345"/>
      <point x="790" y="1306"/>
      <point x="790" y="1210" type="curve" smooth="yes"/>
      <point x="790" y="1111"/>
      <point x="690" y="1003"/>
    </contour>
  </outline>
</glyph>
<glyph name="quotesingle" format="1">
  <advance width="585"/>
  <unicode hex="0027"/>
  <outline>
    <contour>
      <point x="218" y="917" type="line"/>
      <point x="365" y="917" type="line"/>
      <point x="408" y="1543" type="line"/>
      <point x="134" y="1543" type="line"/>
    </contour>
  </outline>
</glyph>
<glyph name="parenright" format="1">
  <advance width="854"/>
  <unicode hex="0029"/>
  <outline>
    <contour>
      <point x="144" y="-283" type="line"/>
      <point x="370" y="-283" type="line"/>
      <point x="523" y="-86"/>
      <point x="648" y="300"/>
      <point x="648" y="655" type="curve" smooth="yes"/>
      <point x="648" y="1011"/>
      <point x="523" y="1397"/>
      <point x="370" y="1595" type="curve"/>
      <point x="144" y="1595" type="line"/>
      <point x="144" y="1556" type="line"/>
      <point x="286" y="1382"/>
      <point x="415" y="1112"/>
      <point x="415" y="655" type="curve" smooth="yes"/>
      <point x="415" y="199"/>
      <point x="286" y="-79"/>
      <point x="144" y="-253" type="curve"/>
    </contour>
  </outline>
</glyph>
<glyph name="plus" format="1">
  <advance width="1179"/>
  <unicode hex="002B"/>
  <outline>
    <contour>
      <point x="471" y="235" type="line"/>
      <point x="704" y="235" type="line"/>
      <point x="704" y="616" type="line"/>
      <point x="1068" y="616" type="line"/>
      <point x="1068" y="844" type="line"/>
      <point x="704" y="844" type="line"/>
      <point x="704" y="1217" type="line"/>
      <point x="471" y="1217" type="line"/>
      <point x="471" y="844" type="line"/>
      <point x="106" y="844" type="line"/>
      <point x="106" y="616" type="line"/>
      <point x="471" y="616" type="line"/>
    </contour>
  </outline>
</glyph>
<glyph name="comma" format="1">
  <advance width="669"/>
  <unicode hex="002C"/>
  <outline>
    <contour>
      <point x="186" y="-340" type="curve"/>
      <point x="374" y="-340" type="line"/>
      <point x="374" y="-340"/>
      <point x="496" y="114"/>
      <point x="496" y="114" type="curve"/>
      <point x="496" y="271" type="line"/>
      <point x="224" y="271" type="line"/>
      <point x="224" y="221"/>
      <point x="186" y="-340"/>
    </contour>
  </outline>
</glyph>
<glyph name="one" format="1">
  <advance width="1343"/>
  <unicode hex="0031"/>
  <outline>
    <contour>
      <point x="195" y="0" type="line"/>
      <point x="1231" y="0" type="line"/>
      <point x="1231" y="216" type="line"/>
      <point x="848" y="216" type="line"/>
      <point x="899" y="158" type="line"/>
      <point x="899" y="1456" type="line"/>
      <point x="616" y="1456" type="line"/>
      <point x="521" y="1385"/>
      <point x="320" y="1308"/>
      <point x="198" y="1275" type="curve"/>
      <point x="198" y="1064" type="line"/>
      <point x="312" y="1078"/>
      <point x="511" y="1146"/>
      <point x="615" y="1204" type="curve"/>
      <point x="571" y="1228" type="line"/>
      <point x="571" y="151" type="line"/>
      <point x="638" y="216" type="line"/>
      <point x="195" y="216" type="line"/>
    </contour>
  </outline>
</glyph>
<glyph name="three" format="1">
  <advance width="1230"/>
  <unicode hex="0033"/>
  <outline>
    <contour>
      <point x="571" y="-20" type="curve" smooth="yes"/>
      <point x="843" y="-20"/>
      <point x="1106" y="109"/>
      <point x="1106" y="410" type="curve" smooth="yes"/>
      <point x="1106" y="564"/>
      <point x="1020" y="724"/>
      <point x="781" y="758" type="curve"/>
      <point x="1011" y="802"/>
      <point x="1064" y="953"/>
      <point x="1064" y="1095" type="curve" smooth="yes"/>
      <point x="1059" y="1357"/>
      <point x="852" y="1476"/>
      <point x="561" y="1476" type="curve" smooth="yes"/>
      <point x="343" y="1476"/>
      <point x="176" y="1378"/>
      <point x="95" y="1256" type="curve"/>
      <point x="243" y="1100" type="line"/>
      <point x="263" y="1096" type="line"/>
      <point x="343" y="1188"/>
      <point x="433" y="1227"/>
      <point x="536" y="1230" type="curve" smooth="yes"/>
      <point x="675" y="1230"/>
      <point x="741" y="1172"/>
      <point x="746" y="1055" type="curve" smooth="yes"/>
      <point x="746" y="871"/>
      <point x="620" y="837"/>
      <point x="422" y="837" type="curve" smooth="yes"/>
      <point x="322" y="836" type="line"/>
      <point x="344" y="637" type="line"/>
      <point x="425" y="637" type="line" smooth="yes"/>
      <point x="637" y="637"/>
      <point x="768" y="601"/>
      <point x="768" y="423" type="curve" smooth="yes"/>
      <point x="768" y="298"/>
      <point x="692" y="223"/>
      <point x="547" y="223" type="curve" smooth="yes"/>
      <point x="415" y="223"/>
      <point x="304" y="284"/>
      <point x="243" y="358" type="curve"/>
      <point x="220" y="358" type="line"/>
      <point x="86" y="194" type="line"/>
      <point x="130" y="121"/>
      <point x="305" y="-20"/>
    </contour>
  </outline>
</glyph>
<glyph name="six" format="1">
  <advance width="1352"/>
  <unicode hex="0036"/>
  <outline>
    <contour>
      <point x="678" y="-20" type="curve" smooth="yes"/>
      <point x="1015" y="-20"/>
      <point x="1217" y="174"/>
      <point x="1217" y="447" type="curve" smooth="yes"/>
      <point x="1217" y="755"/>
      <point x="996" y="897"/>
      <point x="784" y="897" type="curve" smooth="yes"/>
      <point x="705" y="897"/>
      <point x="641" y="870"/>
      <point x="590" y="840" type="curve"/>
      <point x="745" y="1030"/>
      <point x="890" y="1230"/>
      <point x="1040" y="1427" type="curve"/>
      <point x="1040" y="1456" type="line"/>
      <point x="685" y="1456" type="line"/>
      <point x="306" y="914" type="line" smooth="yes"/>
      <point x="204" y="770"/>
      <point x="139" y="646"/>
      <point x="139" y="464" type="curve" smooth="yes"/>
      <point x="139" y="187"/>
      <point x="336" y="-20"/>
    </contour>
    <contour>
      <point x="678" y="206" type="curve" smooth="yes"/>
      <point x="542" y="206"/>
      <point x="462" y="309"/>
      <point x="462" y="454" type="curve" smooth="yes"/>
      <point x="462" y="625"/>
      <point x="563" y="711"/>
      <point x="679" y="711" type="curve" smooth="yes"/>
      <point x="813" y="711"/>
      <point x="894" y="610"/>
      <point x="894" y="456" type="curve" smooth="yes"/>
      <point x="894" y="310"/>
      <point x="813" y="206"/>
    </contour>
  </outline>
</glyph>
<glyph name="eight" format="1">
  <advance width="1352"/>
  <unicode hex="0038"/>
  <outline>
    <contour>
      <point x="680" y="-20" type="curve" smooth="yes"/>
      <point x="1009" y="-20"/>
      <point x="1212" y="125"/>
      <point x="1212" y="385" type="curve" smooth="yes"/>
      <point x="1212" y="580"/>
      <point x="1119" y="720"/>
      <point x="966" y="776" type="curve"/>
      <point x="1102" y="829"/>
      <point x="1186" y="936"/>
      <point x="1186" y="1112" type="curve" smooth="yes"/>
      <point x="1186" y="1349"/>
      <point x="970" y="1476"/>
      <point x="678" y="1476" type="curve" smooth="yes"/>
      <point x="387" y="1476"/>
      <point x="168" y="1349"/>
      <point x="168" y="1112" type="curve" smooth="yes"/>
      <point x="168" y="932"/>
      <point x="260" y="823"/>
      <point x="399" y="775" type="curve"/>
      <point x="238" y="718"/>
      <point x="140" y="580"/>
      <point x="140" y="385" type="curve" smooth="yes"/>
      <point x="140" y="125"/>
      <point x="349" y="-20"/>
    </contour>
    <contour>
      <point x="680" y="187" type="curve" smooth="yes"/>
      <point x="543" y="187"/>
      <point x="478" y="257"/>
      <point x="478" y="399" type="curve" smooth="yes"/>
      <point x="478" y="547"/>
      <point x="561" y="653"/>
      <point x="680" y="689" type="curve"/>
      <point x="797" y="653"/>
      <point x="877" y="546"/>
      <point x="877" y="400" type="curve" smooth="yes"/>
      <point x="877" y="255"/>
      <point x="819" y="187"/>
    </contour>
    <contour>
      <point x="680" y="834" type="curve"/>
      <point x="557" y="878"/>
      <point x="484" y="976"/>
      <point x="484" y="1097" type="curve" smooth="yes"/>
      <point x="484" y="1207"/>
      <point x="562" y="1274"/>
      <point x="680" y="1274" type="curve" smooth="yes"/>
      <point x="797" y="1274"/>
      <point x="869" y="1208"/>
      <point x="869" y="1097" type="curve" smooth="yes"/>
      <point x="869" y="976"/>
      <point x="802" y="878"/>
    </contour>
  </outline>
</glyph>
<glyph name="nine" format="1">
  <advance width="1352"/>
  <unicode hex="0039"/>
  <outline>
    <contour>
      <point x="332" y="0" type="line"/>
      <point x="676" y="0" type="line"/>
      <point x="1064" y="543" type="line"/>
      <point x="1168" y="685"/>
      <point x="1236" y="810"/>
      <point x="1236" y="993" type="curve" smooth="yes"/>
      <point x="1236" y="1269"/>
      <point x="1039" y="1476"/>
      <point x="696" y="1476" type="curve" smooth="yes"/>
      <point x="362" y="1476"/>
      <point x="154" y="1284"/>
      <point x="154" y="1011" type="curve" smooth="yes"/>
      <point x="154" y="703"/>
      <point x="380" y="559"/>
      <point x="591" y="559" type="curve" smooth="yes"/>
      <point x="656" y="559"/>
      <point x="721" y="578"/>
      <point x="773" y="605" type="curve"/>
      <point x="759" y="587"/>
      <point x="662" y="470"/>
      <point x="648" y="451" type="curve" smooth="yes"/>
      <point x="598" y="387"/>
      <point x="382" y="93"/>
      <point x="332" y="29" type="curve"/>
    </contour>
    <contour>
      <point x="692" y="745" type="curve" smooth="yes"/>
      <point x="556" y="745"/>
      <point x="477" y="849"/>
      <point x="477" y="1002" type="curve" smooth="yes"/>
      <point x="477" y="1148"/>
      <point x="560" y="1251"/>
      <point x="695" y="1251" type="curve" smooth="yes"/>
      <point x="830" y="1251"/>
      <point x="912" y="1148"/>
      <point x="912" y="1002" type="curve" smooth="yes"/>
      <point x="912" y="832"/>
      <point x="809" y="745"/>
    </contour>
  </outline>
</glyph>
<glyph name="semicolon" format="1">
  <advance width="753"/>
  <unicode hex="003B"/>
  <outline>
    <contour>
      <point x="213" y="-340" type="curve"/>
      <point x="401" y="-340" type="line"/>
      <point x="401" y="-340"/>
      <point x="522" y="114"/>
      <point x="522" y="114" type="curve"/>
      <point x="522" y="271" type="line"/>
      <point x="250" y="271" type="line"/>
      <point x="250" y="221"/>
      <point x="213" y="-340"/>
    </contour>
    <contour>
      <point x="381" y="797" type="curve" smooth="yes"/>
      <point x="475" y="797"/>
      <point x="543" y="852"/>
      <point x="543" y="950" type="curve" smooth="yes"/>
      <point x="543" y="1052"/>
      <point x="475" y="1109"/>
      <point x="381" y="1109" type="curve" smooth="yes"/>
      <point x="290" y="1109"/>
      <point x="219" y="1052"/>
      <point x="219" y="950" type="curve" smooth="yes"/>
      <point x="219" y="850"/>
      <point x="291" y="797"/>
    </contour>
  </outline>
</glyph>
<glyph name="less" format="1">
  <advance width="1107"/>
  <unicode hex="003C"/>
  <outline>
    <contour>
      <point x="1003" y="173" type="line"/>
      <point x="1003" y="397" type="line"/>
      <point x="358" y="705" type="line"/>
      <point x="1003" y="1039" type="line"/>
      <point x="1003" y="1256" type="line"/>
      <point x="62" y="761" type="line"/>
      <point x="62" y="636" type="line"/>
    </contour>
  </outline>
</glyph>
<glyph name="at" format="1">
  <advance width="2007"/>
  <unicode hex="0040"/>
  <outline>
    <contour>
      <point x="993" y="-140" type="curve" smooth="yes"/>
      <point x="1201" y="-140"/>
      <point x="1420" y="-91"/>
      <point x="1551" y="9" type="curve"/>
      <point x="1492" y="159" type="line"/>
      <point x="1353" y="78"/>
      <point x="1172" y="47"/>
      <point x="996" y="47" type="curve" smooth="yes"/>
      <point x="607" y="47"/>
      <point x="387" y="321"/>
      <point x="387" y="676" type="curve" smooth="yes"/>
      <point x="387" y="1044"/>
      <point x="632" y="1375"/>
      <point x="1054" y="1375" type="curve" smooth="yes"/>
      <point x="1468" y="1375"/>
      <point x="1660" y="1113"/>
      <point x="1660" y="828" type="curve" smooth="yes"/>
      <point x="1660" y="561"/>
      <point x="1554" y="429"/>
      <point x="1458" y="429" type="curve" smooth="yes"/>
      <point x="1404" y="429"/>
      <point x="1366" y="475"/>
      <point x="1366" y="552" type="curve" smooth="yes"/>
      <point x="1366" y="680"/>
      <point x="1405" y="876"/>
      <point x="1434" y="1089" type="curve"/>
      <point x="1358" y="1129"/>
      <point x="1208" y="1176"/>
      <point x="1069" y="1176" type="curve" smooth="yes"/>
      <point x="756" y="1176"/>
      <point x="581" y="901"/>
      <point x="581" y="638" type="curve" smooth="yes"/>
      <point x="581" y="428"/>
      <point x="689" y="256"/>
      <point x="928" y="256" type="curve" smooth="yes"/>
      <point x="1062" y="256"/>
      <point x="1164" y="353"/>
      <point x="1214" y="487" type="curve"/>
      <point x="1240" y="338"/>
      <point x="1335" y="265"/>
      <point x="1458" y="265" type="curve"/>
      <point x="1652" y="265"/>
      <point x="1878" y="452"/>
      <point x="1878" y="820" type="curve" smooth="yes"/>
      <point x="1878" y="1269"/>
      <point x="1518" y="1566"/>
      <point x="1061" y="1566" type="curve" smooth="yes"/>
      <point x="535" y="1566"/>
      <point x="151" y="1178"/>
      <point x="151" y="680" type="curve" smooth="yes"/>
      <point x="151" y="161"/>
      <point x="494" y="-140"/>
    </contour>
    <contour>
      <point x="945" y="425" type="curve" smooth="yes"/>
      <point x="857" y="425"/>
      <point x="811" y="492"/>
      <point x="811" y="625" type="curve" smooth="yes"/>
      <point x="811" y="828"/>
      <point x="918" y="1010"/>
      <point x="1085" y="1010" type="curve" smooth="yes"/>
      <point x="1112" y="1010"/>
      <point x="1162" y="1005"/>
      <point x="1197" y="998" type="curve"/>
      <point x="1159" y="758" type="line"/>
      <point x="1126" y="530"/>
      <point x="1072" y="425"/>
    </contour>
  </outline>
</glyph>
<glyph name="A" format="1">
  <advance width="1502"/>
  <unicode hex="0041"/>
  <outline>
    <contour>
      <point x="756" y="1456" type="move" name="top"/>
    </contour>
    <contour>
      <point x="1288" y="0" type="move" name="ogonek"/>
    </contour>
    <contour>
      <point x="755" y="0" type="move" name="bot"/>
    </contour>
    <contour>
      <point x="556" y="1456" type="line"/>
      <point x="56" y="0" type="line"/>
      <point x="382" y="0" type="line"/>
      <point x="528" y="440" type="line"/>
      <point x="451" y="389" type="line"/>
      <point x="1037" y="389" type="line"/>
      <point x="969" y="438" type="line"/>
      <point x="1120" y="0" type="line"/>
      <point x="1446" y="0" type="line"/>
      <point x="949" y="1456" type="line"/>
    </contour>
    <contour>
      <point x="728" y="1269" type="line"/>
      <point x="942" y="543" type="line"/>
      <point x="974" y="591" type="line"/>
      <point x="519" y="591" type="line"/>
      <point x="560" y="544" type="line"/>
      <point x="776" y="1269" type="line"/>
    </contour>
  </outline>
</glyph>
<glyph name="B" format="1">
  <advance width="1428"/>
  <unicode hex="0042"/>
  <outline>
    <contour>
      <point x="690" y="1456" type="move" name="top"/>
    </contour>
    <contour>
      <point x="598" y="-1" type="curve" smooth="yes"/>
      <point x="1180" y="-1"/>
      <point x="1334" y="146"/>
      <point x="1334" y="433" type="curve" smooth="yes"/>
      <point x="1334" y="632"/>
      <point x="1242" y="744"/>
      <point x="1027" y="783" type="curve"/>
      <point x="1202" y="827"/>
      <point x="1292" y="949"/>
      <point x="1292" y="1095" type="curve" smooth="yes"/>
      <point x="1292" y="1355"/>
      <point x="1100" y="1466"/>
      <point x="688" y="1466" type="curve" smooth="yes"/>
      <point x="589" y="1466"/>
      <point x="354" y="1460"/>
      <point x="178" y="1452" type="curve"/>
      <point x="178" y="17" type="line"/>
      <point x="338" y="5"/>
      <point x="479" y="-1"/>
    </contour>
    <contour>
      <point x="633" y="222" type="curve" smooth="yes"/>
      <point x="597" y="222"/>
      <point x="558" y="224"/>
      <point x="518" y="226" type="curve"/>
      <point x="518" y="667" type="line"/>
      <point x="691" y="667" type="line" smooth="yes"/>
      <point x="895" y="667"/>
      <point x="996" y="632"/>
      <point x="996" y="453" type="curve" smooth="yes"/>
      <point x="996" y="281"/>
      <point x="916" y="222"/>
    </contour>
    <contour>
      <point x="518" y="870" type="line"/>
      <point x="518" y="1249" type="line"/>
      <point x="536" y="1251"/>
      <point x="623" y="1253"/>
      <point x="650" y="1253" type="curve" smooth="yes"/>
      <point x="865" y="1253"/>
      <point x="941" y="1215"/>
      <point x="941" y="1054" type="curve" smooth="yes"/>
      <point x="941" y="915"/>
      <point x="842" y="870"/>
      <point x="699" y="870" type="curve" smooth="yes"/>
    </contour>
  </outline>
</glyph>
<glyph name="D" format="1">
  <advance width="1543"/>
  <unicode hex="0044"/>
  <outline>
    <contour>
      <point x="795" y="1456" type="move" name="top"/>
    </contour>
    <contour>
      <point x="771" y="0" type="move" name="bot"/>
    </contour>
    <contour>
      <point x="364" y="751" type="move" name="mid"/>
    </contour>
    <contour>
      <point x="588" y="230" type="curve" smooth="yes"/>
      <point x="568" y="230"/>
      <point x="541" y="232"/>
      <point x="518" y="234" type="curve"/>
      <point x="518" y="1234" type="line"/>
      <point x="547" y="1237"/>
      <point x="577" y="1239"/>
      <point x="602" y="1239" type="curve" smooth="yes"/>
      <point x="1032" y="1239"/>
      <point x="1090" y="1018"/>
      <point x="1090" y="750" type="curve" smooth="yes"/>
      <point x="1090" y="433"/>
      <point x="973" y="230"/>
    </contour>
    <contour>
      <point x="496" y="-12" type="curve" smooth="yes"/>
      <point x="1203" y="-12"/>
      <point x="1418" y="301"/>
      <point x="1418" y="755" type="curve" smooth="yes"/>
      <point x="1418" y="1254"/>
      <point x="1196" y="1466"/>
      <point x="528" y="1466" type="curve" smooth="yes"/>
      <point x="424" y="1466"/>
      <point x="307" y="1461"/>
      <point x="178" y="1450" type="curve"/>
      <point x="178" y="6" type="line"/>
      <point x="294" y="-6"/>
      <point x="399" y="-12"/>
    </contour>
  </outline>
</glyph>
<glyph name="E" format="1">
  <advance width="1349"/>
  <unicode hex="0045"/>
  <outline>
    <contour>
      <point x="752" y="1456" type="move" name="top"/>
    </contour>
    <contour>
      <point x="959" y="0" type="move" name="ogonek"/>
    </contour>
    <contour>
      <point x="676" y="0" type="move" name="bot"/>
    </contour>
    <contour>
      <point x="178" y="0" type="line"/>
      <point x="1215" y="0" type="line"/>
      <point x="1221" y="235" type="line"/>
      <point x="517" y="235" type="line"/>
      <point x="517" y="633" type="line"/>
      <point x="1158" y="633" type="line"/>
      <point x="1158" y="862" type="line"/>
      <point x="517" y="862" type="line"/>
      <point x="517" y="1228" type="line"/>
      <point x="1186" y="1228" type="line"/>
      <point x="1202" y="1456" type="line"/>
      <point x="178" y="1456" type="line"/>
    </contour>
  </outline>
</glyph>
<glyph name="F" format="1">
  <advance width="1243"/>
  <unicode hex="0046"/>
  <outline>
    <contour>
      <point x="730" y="1456" type="move" name="top"/>
    </contour>
    <contour>
      <point x="178" y="0" type="line"/>
      <point x="518" y="0" type="line"/>
      <point x="518" y="604" type="line"/>
      <point x="1115" y="604" type="line"/>
      <point x="1115" y="832" type="line"/>
      <point x="518" y="832" type="line"/>
      <point x="518" y="1218" type="line"/>
      <point x="1164" y="1218" type="line"/>
      <point x="1179" y="1456" type="line"/>
      <point x="178" y="1456" type="line"/>
    </contour>
  </outline>
</glyph>
<glyph name="J" format="1">
  <advance width="813"/>
  <unicode hex="004A"/>
  <outline>
    <contour>
      <point x="461" y="1456" type="move" name="top"/>
    </contour>
    <contour>
      <point x="104" y="-544" type="line"/>
      <point x="254" y="-480" type="line"/>
      <point x="642" y="-312"/>
      <point x="626" y="-183"/>
      <point x="626" y="217" type="curve" smooth="yes"/>
      <point x="626" y="1456" type="line"/>
      <point x="287" y="1456" type="line"/>
      <point x="287" y="225" type="line" smooth="yes"/>
      <point x="287" y="-95"/>
      <point x="278" y="-146"/>
      <point x="166" y="-198" type="curve" smooth="yes"/>
      <point x="-12" y="-284" type="line"/>
    </contour>
  </outline>
</glyph>
<glyph name="K" format="1">
  <advance width="1423"/>
  <unicode hex="004B"/>
  <outline>
    <contour>
      <point x="759" y="1456" type="move" name="top"/>
    </contour>
    <contour>
      <point x="758" y="0" type="move" name="bot"/>
    </contour>
    <contour>
      <point x="178" y="0" type="line"/>
      <point x="518" y="0" type="line"/>
      <point x="518" y="541" type="line"/>
      <point x="592" y="620" type="line"/>
      <point x="1047" y="0" type="line"/>
      <point x="1426" y="0" type="line"/>
      <point x="1426" y="9" type="line"/>
      <point x="840" y="804" type="line"/>
      <point x="1373" y="1445" type="line"/>
      <point x="1373" y="1456" type="line"/>
      <point x="1003" y="1456" type="line"/>
      <point x="518" y="868" type="line"/>
      <point x="518" y="1456" type="line"/>
      <point x="178" y="1456" type="line"/>
    </contour>
  </outline>
</glyph>
<glyph name="M" format="1">
  <advance width="1878"/>
  <unicode hex="004D"/>
  <outline>
    <contour>
      <point x="944" y="1456" type="move" name="top"/>
    </contour>
    <contour>
      <point x="162" y="-4" type="line"/>
      <point x="465" y="-4" type="line"/>
      <point x="465" y="532" type="line"/>
      <point x="478" y="1204" type="line"/>
      <point x="366" y="1219" type="line"/>
      <point x="832" y="218" type="line"/>
      <point x="1039" y="218" type="line"/>
      <point x="1516" y="1221" type="line"/>
      <point x="1399" y="1204" type="line"/>
      <point x="1411" y="535" type="line"/>
      <point x="1411" y="-4" type="line"/>
      <point x="1716" y="-4" type="line"/>
      <point x="1716" y="580" type="line"/>
      <point x="1693" y="1456" type="line"/>
      <point x="1361" y="1456" type="line"/>
      <point x="898" y="490" type="line"/>
      <point x="988" y="490" type="line"/>
      <point x="524" y="1456" type="line"/>
      <point x="185" y="1456" type="line"/>
      <point x="162" y="574" type="line"/>
    </contour>
  </outline>
</glyph>
<glyph name="N" format="1">
  <advance width="1612"/>
  <unicode hex="004E"/>
  <outline>
    <contour>
      <point x="768" y="1456" type="move" name="top"/>
    </contour>
    <contour>
      <point x="778" y="0" type="move" name="bot"/>
    </contour>
    <contour>
      <point x="178" y="0" type="line"/>
      <point x="502" y="0" type="line"/>
      <point x="502" y="576" type="line"/>
      <point x="485" y="957" type="line"/>
      <point x="1099" y="0" type="line"/>
      <point x="1434" y="0" type="line"/>
      <point x="1434" y="1456" type="line"/>
      <point x="1118" y="1456" type="line"/>
      <point x="1118" y="851" type="line"/>
      <point x="1134" y="464" type="line"/>
      <point x="501" y="1456" type="line"/>
      <point x="178" y="1456" type="line"/>
    </contour>
  </outline>
</glyph>
<glyph name="P" format="1">
  <advance width="1424"/>
  <unicode hex="0050"/>
  <outline>
    <contour>
      <point x="723" y="1456" type="move" name="top"/>
    </contour>
    <contour>
      <point x="178" y="0" type="line"/>
      <point x="518" y="0" type="line"/>
      <point x="518" y="527" type="line"/>
      <point x="573" y="523"/>
      <point x="625" y="522"/>
      <point x="674" y="522" type="curve" smooth="yes"/>
      <point x="1191" y="522"/>
      <point x="1349" y="710"/>
      <point x="1349" y="1020" type="curve" smooth="yes"/>
      <point x="1349" y="1325"/>
      <point x="1173" y="1466"/>
      <point x="578" y="1466" type="curve" smooth="yes"/>
      <point x="462" y="1466"/>
      <point x="329" y="1460"/>
      <point x="178" y="1447" type="curve"/>
    </contour>
    <contour>
      <point x="636" y="743" type="curve" smooth="yes"/>
      <point x="601" y="743"/>
      <point x="561" y="744"/>
      <point x="518" y="748" type="curve"/>
      <point x="518" y="1245" type="line"/>
      <point x="562" y="1248"/>
      <point x="602" y="1250"/>
      <point x="636" y="1250" type="curve" smooth="yes"/>
      <point x="974" y="1250"/>
      <point x="1026" y="1146"/>
      <point x="1026" y="1005" type="curve" smooth="yes"/>
      <point x="1026" y="856"/>
      <point x="958" y="743"/>
    </contour>
  </outline>
</glyph>
<glyph name="R" format="1">
  <advance width="1448"/>
  <unicode hex="0052"/>
  <outline>
    <contour>
      <point x="743" y="1456" type="move" name="top"/>
    </contour>
    <contour>
      <point x="739" y="0" type="move" name="bot"/>
    </contour>
    <contour>
      <point x="181" y="0" type="line"/>
      <point x="505" y="0" type="line"/>
      <point x="505" y="670" type="line"/>
      <point x="457" y="623" type="line"/>
      <point x="771" y="623" type="line"/>
      <point x="702" y="662" type="line"/>
      <point x="1039" y="0" type="line"/>
      <point x="1391" y="0" type="line"/>
      <point x="1391" y="17" type="line"/>
      <point x="1021" y="712" type="line"/>
      <point x="990" y="652" type="line"/>
      <point x="1155" y="688"/>
      <point x="1327" y="777"/>
      <point x="1325" y="1051" type="curve" smooth="yes"/>
      <point x="1323" y="1477"/>
      <point x="1027" y="1517"/>
      <point x="181" y="1448" type="curve"/>
    </contour>
    <contour>
      <point x="505" y="787" type="line"/>
      <point x="505" y="1288" type="line"/>
      <point x="454" y="1238" type="line"/>
      <point x="841" y="1274"/>
      <point x="1029" y="1263"/>
      <point x="1029" y="1052" type="curve" smooth="yes"/>
      <point x="1030" y="880"/>
      <point x="955" y="822"/>
      <point x="720" y="822" type="curve" smooth="yes"/>
      <point x="467" y="822" type="line"/>
    </contour>
  </outline>
</glyph>
<glyph name="U" format="1">
  <advance width="1512"/>
  <unicode hex="0055"/>
  <outline>
    <contour>
      <point x="758" y="1456" type="move" name="top"/>
    </contour>
    <contour>
      <point x="842" y="5" type="move" name="ogonek"/>
    </contour>
    <contour>
      <point x="766" y="0" type="move" name="bot"/>
    </contour>
    <contour>
      <point x="752" y="-20" type="curve" smooth="yes"/>
      <point x="1154" y="-20"/>
      <point x="1362" y="194"/>
      <point x="1362" y="534" type="curve" smooth="yes"/>
      <point x="1362" y="1456" type="line"/>
      <point x="1023" y="1456" type="line"/>
      <point x="1023" y="555" type="line" smooth="yes"/>
      <point x="1023" y="327"/>
      <point x="932" y="226"/>
      <point x="752" y="226" type="curve" smooth="yes"/>
      <point x="575" y="226"/>
      <point x="488" y="326"/>
      <point x="488" y="554" type="curve" smooth="yes"/>
      <point x="488" y="1456" type="line"/>
      <point x="149" y="1456" type="line"/>
      <point x="149" y="535" type="line" smooth="yes"/>
      <point x="149" y="192"/>
      <point x="349" y="-20"/>
    </contour>
  </outline>
</glyph>
<glyph name="V" format="1">
  <advance width="1393"/>
  <unicode hex="0056"/>
  <outline>
    <contour>
      <point x="494" y="-5" type="line"/>
      <point x="868" y="-5" type="line"/>
      <point x="1371" y="1456" type="line"/>
      <point x="1040" y="1456" type="line"/>
      <point x="981" y="1292"/>
      <point x="747" y="490"/>
      <point x="690" y="324" type="curve"/>
      <point x="583" y="706"/>
      <point x="465" y="1079"/>
      <point x="353" y="1456" type="curve"/>
      <point x="22" y="1456" type="line"/>
    </contour>
  </outline>
</glyph>
<glyph name="X" format="1">
  <advance width="1392"/>
  <unicode hex="0058"/>
  <outline>
    <contour>
      <point x="2" y="-5" type="line"/>
      <point x="353" y="-5" type="line"/>
      <point x="684" y="496" type="line"/>
      <point x="1017" y="-5" type="line"/>
      <point x="1388" y="-5" type="line"/>
      <point x="894" y="737" type="line"/>
      <point x="1367" y="1456" type="line"/>
      <point x="1004" y="1456" type="line"/>
      <point x="717" y="1003" type="line"/>
      <point x="416" y="1456" type="line"/>
      <point x="45" y="1456" type="line"/>
      <point x="508" y="761" type="line"/>
    </contour>
  </outline>
</glyph>
<glyph name="Y" format="1">
  <advance width="1351"/>
  <unicode hex="0059"/>
  <outline>
    <contour>
      <point x="679" y="1456" type="move" name="top"/>
    </contour>
    <contour>
      <point x="506" y="0" type="line"/>
      <point x="845" y="0" type="line"/>
      <point x="845" y="560" type="line"/>
      <point x="1335" y="1456" type="line"/>
      <point x="981" y="1456" type="line"/>
      <point x="674" y="874" type="line"/>
      <point x="369" y="1456" type="line"/>
      <point x="17" y="1456" type="line"/>
      <point x="506" y="557" type="line"/>
    </contour>
  </outline>
</glyph>
<glyph name="Z" format="1">
  <advance width="1249"/>
  <unicode hex="005A"/>
  <outline>
    <contour>
      <point x="646" y="1456" type="move" name="top"/>
    </contour>
    <contour>
      <point x="609" y="0" type="move" name="bot"/>
    </contour>
    <contour>
      <point x="104" y="0" type="line"/>
      <point x="1173" y="0" type="line"/>
      <point x="1164" y="219" type="line"/>
      <point x="502" y="219" type="line"/>
      <point x="1148" y="1261" type="line"/>
      <point x="1147" y="1456" type="line"/>
      <point x="117" y="1456" type="line"/>
      <point x="131" y="1237" type="line"/>
      <point x="781" y="1237" type="line"/>
      <point x="104" y="183" type="line"/>
    </contour>
  </outline>
</glyph>
<glyph name="bracketleft" format="1">
  <advance width="823"/>
  <unicode hex="005B"/>
  <outline>
    <contour>
      <point x="225" y="-251" type="line"/>
      <point x="675" y="-251" type="line"/>
      <point x="675" y="-59" type="line"/>
      <point x="459" y="-59" type="line"/>
      <point x="459" y="1292" type="line"/>
      <point x="675" y="1292" type="line"/>
      <point x="675" y="1482" type="line"/>
      <point x="225" y="1482" type="line"/>
    </contour>
  </outline>
</glyph>
<glyph name="asciicircum" format="1">
  <advance width="1456"/>
  <unicode hex="005E"/>
  <outline>
    <contour>
      <point x="105" y="278" type="line"/>
      <point x="421" y="278" type="line"/>
      <point x="721" y="974" type="line"/>
      <point x="1035" y="278" type="line"/>
      <point x="1352" y="278" type="line"/>
      <point x="783" y="1456" type="line"/>
      <point x="645" y="1456" type="line"/>
    </contour>
  </outline>
</glyph>
<glyph name="a" format="1">
  <advance width="1149"/>
  <unicode hex="0061"/>
  <outline>
    <contour>
      <point x="561" y="1082" type="move" name="top"/>
    </contour>
    <contour>
      <point x="898" y="0" type="move" name="ogonek"/>
    </contour>
    <contour>
      <point x="592" y="0" type="move" name="bot"/>
    </contour>
    <contour>
      <point x="436" y="-17" type="curve" smooth="yes"/>
      <point x="640" y="-14"/>
      <point x="743" y="77"/>
      <point x="832" y="197" type="curve"/>
      <point x="752" y="194" type="line"/>
      <point x="799" y="0" type="line"/>
      <point x="1029" y="0" type="line"/>
      <point x="1029" y="655" type="line" smooth="yes"/>
      <point x="1029" y="976"/>
      <point x="837" y="1102"/>
      <point x="583" y="1102" type="curve" smooth="yes"/>
      <point x="435" y="1102"/>
      <point x="273" y="1062"/>
      <point x="132" y="988" type="curve"/>
      <point x="194" y="798" type="line"/>
      <point x="310" y="853"/>
      <point x="440" y="887"/>
      <point x="538" y="887" type="curve" smooth="yes"/>
      <point x="659" y="887"/>
      <point x="730" y="835"/>
      <point x="730" y="705" type="curve" smooth="yes"/>
      <point x="730" y="584" type="line"/>
      <point x="763" y="617" type="line"/>
      <point x="560" y="618" type="line" smooth="yes"/>
      <point x="316" y="620"/>
      <point x="93" y="539"/>
      <point x="93" y="302" type="curve" smooth="yes"/>
      <point x="93" y="87"/>
      <point x="235" y="-20"/>
    </contour>
    <contour>
      <point x="515" y="157" type="curve" smooth="yes"/>
      <point x="439" y="155"/>
      <point x="365" y="200"/>
      <point x="367" y="309" type="curve" smooth="yes"/>
      <point x="369" y="428"/>
      <point x="468" y="470"/>
      <point x="620" y="470" type="curve" smooth="yes"/>
      <point x="760" y="470" type="line"/>
      <point x="729" y="509" type="line"/>
      <point x="729" y="218" type="line"/>
      <point x="759" y="289" type="line"/>
      <point x="718" y="234"/>
      <point x="654" y="161"/>
    </contour>
  </outline>
</glyph>
<glyph name="c" format="1">
  <advance width="1124"/>
  <unicode hex="0063"/>
  <outline>
    <contour>
      <point x="622" y="1082" type="move" name="top"/>
    </contour>
    <contour>
      <point x="624" y="0" type="move" name="bot"/>
    </contour>
    <contour>
      <point x="620" y="-20" type="curve" smooth="yes"/>
      <point x="835" y="-20"/>
      <point x="972" y="68"/>
      <point x="1051" y="235" type="curve"/>
      <point x="865" y="327" type="line"/>
      <point x="852" y="327" type="line"/>
      <point x="806" y="234"/>
      <point x="736" y="197"/>
      <point x="639" y="199" type="curve" smooth="yes"/>
      <point x="499" y="201"/>
      <point x="409" y="301"/>
      <point x="409" y="542" type="curve" smooth="yes"/>
      <point x="409" y="787"/>
      <point x="503" y="882"/>
      <point x="643" y="884" type="curve" smooth="yes"/>
      <point x="738" y="886"/>
      <point x="808" y="847"/>
      <point x="855" y="755" type="curve"/>
      <point x="868" y="755" type="line"/>
      <point x="1053" y="848" type="line"/>
      <point x="984" y="1009"/>
      <point x="844" y="1103"/>
      <point x="617" y="1103" type="curve" smooth="yes"/>
      <point x="304" y="1103"/>
      <point x="89" y="887"/>
      <point x="89" y="542" type="curve" smooth="yes"/>
      <point x="89" y="196"/>
      <point x="295" y="-20"/>
    </contour>
  </outline>
</glyph>
<glyph name="i" format="1">
  <advance width="646"/>
  <unicode hex="0069"/>
  <outline>
    <contour>
      <point x="334" y="1082" type="move" name="top"/>
    </contour>
    <contour>
      <point x="327" y="0" type="move" name="ogonek"/>
    </contour>
    <contour>
      <point x="169" y="0" type="line"/>
      <point x="490" y="0" type="line"/>
      <point x="490" y="1082" type="line"/>
      <point x="169" y="1082" type="line"/>
    </contour>
    <component base="dotaccent" xOffset="33"/>
  </outline>
</glyph>
<glyph name="j" format="1">
  <advance width="672"/>
  <unicode hex="006A"/>
  <outline>
    <contour>
      <point x="36" y="-529" type="line"/>
      <point x="119" y="-495" type="line"/>
      <point x="377" y="-396"/>
      <point x="521" y="-323"/>
      <point x="521" y="-27" type="curve" smooth="yes"/>
      <point x="521" y="1082" type="line"/>
      <point x="200" y="1082" type="line"/>
      <point x="200" y="5" type="line" smooth="yes"/>
      <point x="200" y="-152"/>
      <point x="183" y="-193"/>
      <point x="18" y="-260" type="curve" smooth="yes"/>
      <point x="-69" y="-296" type="line"/>
    </contour>
    <component base="dotaccent" xOffset="65"/>
  </outline>
</glyph>
<glyph name="k" format="1">
  <advance width="1197"/>
  <unicode hex="006B"/>
  <outline>
    <contour>
      <point x="646" y="0" type="move" name="bot"/>
    </contour>
    <contour>
      <point x="144" y="0" type="line"/>
      <point x="465" y="0" type="line"/>
      <point x="465" y="407" type="line"/>
      <point x="528" y="464" type="line"/>
      <point x="854" y="0" type="line"/>
      <point x="1177" y="0" type="line"/>
      <point x="1177" y="30" type="line"/>
      <point x="766" y="586" type="line"/>
      <point x="1159" y="1063" type="line"/>
      <point x="1159" y="1082" type="line"/>
      <point x="822" y="1082" type="line"/>
      <point x="459" y="647" type="line"/>
      <point x="465" y="801" type="line"/>
      <point x="465" y="1560" type="line"/>
      <point x="144" y="1540" type="line"/>
    </contour>
  </outline>
</glyph>
<glyph name="m" format="1">
  <advance width="1898"/>
  <unicode hex="006D"/>
  <outline>
    <contour>
      <point x="1045" y="1082" type="move" name="top"/>
    </contour>
    <contour>
      <point x="136" y="0" type="line"/>
      <point x="456" y="0" type="line"/>
      <point x="456" y="627" type="line"/>
      <point x="466" y="811"/>
      <point x="540" y="894"/>
      <point x="644" y="894" type="curve" smooth="yes"/>
      <point x="746" y="894"/>
      <point x="793" y="828"/>
      <point x="793" y="619" type="curve" smooth="yes"/>
      <point x="793" y="0" type="line"/>
      <point x="1115" y="0" type="line"/>
      <point x="1115" y="380"/>
      <point x="1115" y="648"/>
      <point x="1114" y="646" type="curve" smooth="yes"/>
      <point x="1113" y="790"/>
      <point x="1205" y="894"/>
      <point x="1303" y="894" type="curve" smooth="yes"/>
      <point x="1412" y="894"/>
      <point x="1451" y="810"/>
      <point x="1451" y="629" type="curve" smooth="yes"/>
      <point x="1451" y="0" type="line"/>
      <point x="1772" y="0" type="line"/>
      <point x="1772" y="680" type="line" smooth="yes"/>
      <point x="1772" y="946"/>
      <point x="1646" y="1103"/>
      <point x="1409" y="1103" type="curve" smooth="yes"/>
      <point x="1238" y="1103"/>
      <point x="1132" y="1015"/>
      <point x="1075" y="889" type="curve"/>
      <point x="1015" y="1043"/>
      <point x="890" y="1103"/>
      <point x="751" y="1103" type="curve" smooth="yes"/>
      <point x="589" y="1103"/>
      <point x="487" y="1019"/>
      <point x="429" y="897" type="curve"/>
      <point x="410" y="1082" type="line"/>
      <point x="136" y="1082" type="line"/>
    </contour>
  </outline>
</glyph>
<glyph name="o" format="1">
  <advance width="1247"/>
  <unicode hex="006F"/>
  <outline>
    <contour>
      <point x="625" y="1082" type="move" name="top"/>
    </contour>
    <contour>
      <point x="677" y="0" type="move" name="ogonek"/>
    </contour>
    <contour>
      <point x="624" y="188" type="curve" smooth="yes"/>
      <point x="485" y="188"/>
      <point x="410" y="303"/>
      <point x="410" y="544" type="curve" smooth="yes"/>
      <point x="410" y="782"/>
      <point x="483" y="894"/>
      <point x="624" y="894" type="curve" smooth="yes"/>
      <point x="764" y="894"/>
      <point x="837" y="782"/>
      <point x="837" y="544" type="curve" smooth="yes"/>
      <point x="837" y="305"/>
      <point x="762" y="188"/>
    </contour>
    <contour>
      <point x="624" y="-21" type="curve" smooth="yes"/>
      <point x="958" y="-21"/>
      <point x="1159" y="208"/>
      <point x="1159" y="544" type="curve" smooth="yes"/>
      <point x="1159" y="877"/>
      <point x="957" y="1103"/>
      <point x="624" y="1103" type="curve" smooth="yes"/>
      <point x="291" y="1103"/>
      <point x="89" y="877"/>
      <point x="89" y="544" type="curve" smooth="yes"/>
      <point x="89" y="208"/>
      <point x="289" y="-21"/>
    </contour>
  </outline>
</glyph>
<glyph name="p" format="1">
  <advance width="1254"/>
  <unicode hex="0070"/>
  <outline>
    <contour>
      <point x="662" y="1082" type="move" name="top"/>
    </contour>
    <contour>
      <point x="141" y="-471" type="line"/>
      <point x="443" y="-471" type="line"/>
      <point x="443" y="-59" type="line"/>
      <point x="436" y="209" type="line"/>
      <point x="380" y="206" type="line"/>
      <point x="411" y="107"/>
      <point x="514" y="-20"/>
      <point x="717" y="-20" type="curve" smooth="yes"/>
      <point x="1009" y="-20"/>
      <point x="1162" y="215"/>
      <point x="1162" y="546" type="curve" smooth="yes"/>
      <point x="1162" y="867"/>
      <point x="1023" y="1103"/>
      <point x="733" y="1103" type="curve" smooth="yes"/>
      <point x="509" y="1103"/>
      <point x="408" y="937"/>
      <point x="390" y="753" type="curve"/>
      <point x="428" y="752" type="line"/>
      <point x="410" y="1082" type="line"/>
      <point x="141" y="1082" type="line"/>
    </contour>
    <contour>
      <point x="645" y="180" type="curve" smooth="yes"/>
      <point x="551" y="180"/>
      <point x="486" y="220"/>
      <point x="442" y="278" type="curve"/>
      <point x="442" y="697" type="line" smooth="yes"/>
      <point x="464" y="820"/>
      <point x="535" y="902"/>
      <point x="661" y="902" type="curve" smooth="yes"/>
      <point x="784" y="902"/>
      <point x="855" y="802"/>
      <point x="855" y="547" type="curve" smooth="yes"/>
      <point x="855" y="266"/>
      <point x="766" y="180"/>
    </contour>
  </outline>
</glyph>
<glyph name="s" format="1">
  <advance width="1012"/>
  <unicode hex="0073"/>
  <outline>
    <contour>
      <point x="490" y="1082" type="move" name="top"/>
    </contour>
    <contour>
      <point x="509" y="0" type="move" name="bot"/>
    </contour>
    <contour>
      <point x="535" y="-20" type="curve" smooth="yes"/>
      <point x="789" y="-20"/>
      <point x="947" y="127"/>
      <point x="947" y="325" type="curve" smooth="yes"/>
      <point x="947" y="441"/>
      <point x="908" y="539"/>
      <point x="713" y="615" type="curve"/>
      <point x="542" y="687" type="line" smooth="yes"/>
      <point x="447" y="722"/>
      <point x="429" y="749"/>
      <point x="429" y="797" type="curve" smooth="yes"/>
      <point x="429" y="857"/>
      <point x="471" y="897"/>
      <point x="567" y="897" type="curve" smooth="yes"/>
      <point x="662" y="897"/>
      <point x="739" y="855"/>
      <point x="799" y="794" type="curve"/>
      <point x="813" y="794" type="line"/>
      <point x="937" y="926" type="line"/>
      <point x="837" y="1044"/>
      <point x="705" y="1103"/>
      <point x="518" y="1103" type="curve" smooth="yes"/>
      <point x="269" y="1103"/>
      <point x="106" y="982"/>
      <point x="106" y="789" type="curve" smooth="yes"/>
      <point x="106" y="634"/>
      <point x="181" y="546"/>
      <point x="398" y="465" type="curve" smooth="yes"/>
      <point x="533" y="413" type="line" smooth="yes"/>
      <point x="634" y="378"/>
      <point x="645" y="346"/>
      <point x="645" y="302" type="curve" smooth="yes"/>
      <point x="645" y="230"/>
      <point x="599" y="186"/>
      <point x="504" y="186" type="curve" smooth="yes"/>
      <point x="415" y="186"/>
      <point x="293" y="227"/>
      <point x="211" y="322" type="curve"/>
      <point x="196" y="322" type="line"/>
      <point x="60" y="174" type="line"/>
      <point x="166" y="44"/>
      <point x="329" y="-20"/>
    </contour>
  </outline>
</glyph>
<glyph name="t" format="1">
  <advance width="875"/>
  <unicode hex="0074"/>
  <outline>
    <contour>
      <point x="407" y="1335" type="move" name="top"/>
    </contour>
    <contour>
      <point x="507" y="0" type="move" name="bot"/>
    </contour>
    <contour>
      <point x="380" y="698" type="move" name="mid"/>
    </contour>
    <contour>
      <point x="626" y="-9" type="curve" smooth="yes"/>
      <point x="815" y="-4" type="line"/>
      <point x="825" y="205" type="line"/>
      <point x="676" y="211" type="line" smooth="yes"/>
      <point x="546" y="216"/>
      <point x="519" y="263"/>
      <point x="519" y="392" type="curve" smooth="yes"/>
      <point x="519" y="897" type="line"/>
      <point x="807" y="897" type="line"/>
      <point x="807" y="1082" type="line"/>
      <point x="519" y="1082" type="line"/>
      <point x="519" y="1412" type="line"/>
      <point x="232" y="1390" type="line"/>
      <point x="211" y="1084" type="line"/>
      <point x="46" y="1067" type="line"/>
      <point x="38" y="897" type="line"/>
      <point x="203" y="897" type="line"/>
      <point x="203" y="402" type="line" smooth="yes"/>
      <point x="203" y="125"/>
      <point x="254" y="-9"/>
    </contour>
  </outline>
</glyph>
<glyph name="v" format="1">
  <advance width="1095"/>
  <unicode hex="0076"/>
  <outline>
    <contour>
      <point x="400" y="0" type="line"/>
      <point x="705" y="0" type="line"/>
      <point x="1074" y="1082" type="line"/>
      <point x="767" y="1082" type="line"/>
      <point x="632" y="589" type="line"/>
      <point x="541" y="235" type="line"/>
      <point x="592" y="235" type="line"/>
      <point x="485" y="590" type="line"/>
      <point x="336" y="1082" type="line"/>
      <point x="22" y="1082" type="line"/>
    </contour>
  </outline>
</glyph>
<glyph name="w" format="1">
  <advance width="1594"/>
  <unicode hex="0077"/>
  <outline>
    <contour>
      <point x="812" y="1082" type="move" name="top"/>
    </contour>
    <contour>
      <point x="294" y="-5" type="line"/>
      <point x="579" y="-5" type="line"/>
      <point x="809" y="759" type="line"/>
      <point x="999" y="-5" type="line"/>
      <point x="1297" y="-5" type="line"/>
      <point x="1577" y="1082" type="line"/>
      <point x="1304" y="1082" type="line"/>
      <point x="1149" y="337" type="line"/>
      <point x="957" y="1082" type="line"/>
      <point x="666" y="1082" type="line"/>
      <point x="459" y="325" type="line"/>
      <point x="313" y="1082" type="line"/>
      <point x="17" y="1082" type="line"/>
    </contour>
  </outline>
</glyph>
<glyph name="z" format="1">
  <advance width="974"/>
  <unicode hex="007A"/>
  <outline>
    <contour>
      <point x="486" y="1082" type="move" name="top"/>
    </contour>
    <contour>
      <point x="500" y="0" type="move" name="bot"/>
    </contour>
    <contour>
      <point x="86" y="1082" type="line"/>
      <point x="83" y="895" type="line"/>
      <point x="635" y="895" type="line"/>
      <point x="599" y="942" type="line"/>
      <point x="76" y="155" type="line"/>
      <point x="76" y="0" type="line"/>
      <point x="914" y="0" type="line"/>
      <point x="916" y="195" type="line"/>
      <point x="351" y="195" type="line"/>
      <point x="388" y="144" type="line"/>
      <point x="897" y="910" type="line"/>
      <point x="897" y="1082" type="line"/>
    </contour>
  </outline>
</glyph>
<glyph name="bar" format="1">
  <advance width="727"/>
  <unicode hex="007C"/>
  <outline>
    <contour>
      <point x="270" y="-458" type="line"/>
      <point x="464" y="-458" type="line"/>
      <point x="464" y="1476" type="line"/>
      <point x="270" y="1476" type="line"/>
    </contour>
  </outline>
</glyph>
<glyph name="braceright" format="1">
  <advance width="939"/>
  <unicode hex="007D"/>
  <outline>
    <contour>
      <point x="156" y="-306" type="line"/>
      <point x="373" y="-306"/>
      <point x="562" y="-275"/>
      <point x="562" y="-23" type="curve" smooth="yes"/>
      <point x="562" y="317" type="line" smooth="yes"/>
      <point x="562" y="445"/>
      <point x="569" y="534"/>
      <point x="775" y="534" type="curve"/>
      <point x="775" y="732" type="line"/>
      <point x="569" y="732"/>
      <point x="562" y="820"/>
      <point x="562" y="948" type="curve" smooth="yes"/>
      <point x="562" y="1289" type="line" smooth="yes"/>
      <point x="562" y="1540"/>
      <point x="373" y="1572"/>
      <point x="156" y="1572" type="curve"/>
      <point x="156" y="1395" type="line"/>
      <point x="287" y="1393"/>
      <point x="333" y="1378"/>
      <point x="333" y="1226" type="curve" smooth="yes"/>
      <point x="333" y="905" type="line" smooth="yes"/>
      <point x="333" y="783"/>
      <point x="356" y="667"/>
      <point x="533" y="632" type="curve"/>
      <point x="356" y="599"/>
      <point x="333" y="482"/>
      <point x="333" y="360" type="curve" smooth="yes"/>
      <point x="333" y="39" type="line" smooth="yes"/>
      <point x="333" y="-113"/>
      <point x="287" y="-127"/>
      <point x="156" y="-130" type="curve"/>
    </contour>
  </outline>
</glyph>
<glyph name="asciitilde" format="1">
  <advance width="1192"/>
  <unicode hex="007E"/>
  <outline>
    <contour>
      <point x="174" y="474" type="line"/>
      <point x="214" y="550"/>
      <point x="278" y="618"/>
      <point x="363" y="618" type="curve" smooth="yes"/>
      <point x="429" y="618"/>
      <point x="491" y="591"/>
      <point x="559" y="559" type="curve" smooth="yes"/>
      <point x="650" y="518"/>
      <point x="728" y="486"/>
      <point x="818" y="486" type="curve" smooth="yes"/>
      <point x="960" y="486"/>
      <point x="1078" y="579"/>
      <point x="1128" y="683" type="curve"/>
      <point x="1048" y="821" type="line"/>
      <point x="973" y="730"/>
      <point x="907" y="687"/>
      <point x="833" y="687" type="curve" smooth="yes"/>
      <point x="779" y="687"/>
      <point x="710" y="712"/>
      <point x="623" y="752" type="curve" smooth="yes"/>
      <point x="539" y="790"/>
      <point x="455" y="817"/>
      <point x="372" y="817" type="curve" smooth="yes"/>
      <point x="226" y="817"/>
      <point x="140" y="727"/>
      <point x="90" y="621" type="curve"/>
    </contour>
  </outline>
</glyph>
<glyph name="cent" format="1">
  <advance width="1117"/>
  <unicode hex="00A2"/>
  <outline>
    <contour>
      <point x="551" y="-300" type="line"/>
      <point x="683" y="-300" type="line"/>
      <point x="689" y="51" type="line"/>
      <point x="558" y="51" type="line"/>
    </contour>
    <contour>
      <point x="558" y="1040" type="line"/>
      <point x="687" y="1040" type="line"/>
      <point x="702" y="1368" type="line"/>
      <point x="561" y="1368" type="line"/>
    </contour>
    <component base="c"/>
  </outline>
</glyph>
<glyph name="sterling" format="1">
  <advance width="1197"/>
  <unicode hex="00A3"/>
  <outline>
    <contour>
      <point x="1012" y="1216" type="line"/>
      <point x="1112" y="1402" type="line"/>
      <point x="1069" y="1440"/>
      <point x="932" y="1532"/>
      <point x="720" y="1532" type="curve" smooth="yes"/>
      <point x="379" y="1532"/>
      <point x="264" y="1302"/>
      <point x="264" y="973" type="curve" smooth="yes"/>
      <point x="264" y="853" type="line"/>
      <point x="81" y="853" type="line"/>
      <point x="81" y="670" type="line"/>
      <point x="264" y="670" type="line"/>
      <point x="264" y="217" type="line"/>
      <point x="88" y="196" type="line"/>
      <point x="99" y="0" type="line"/>
      <point x="1095" y="0" type="line"/>
      <point x="1102" y="219" type="line"/>
      <point x="575" y="219" type="line"/>
      <point x="575" y="670" type="line"/>
      <point x="903" y="670" type="line"/>
      <point x="903" y="853" type="line"/>
      <point x="575" y="853" type="line"/>
      <point x="575" y="1016" type="line" smooth="yes"/>
      <point x="575" y="1195"/>
      <point x="649" y="1286"/>
      <point x="779" y="1287" type="curve" smooth="yes"/>
      <point x="855" y="1288"/>
      <point x="920" y="1259"/>
      <point x="992" y="1216" type="curve"/>
    </contour>
  </outline>
</glyph>
<glyph name="dieresis" format="1">
  <advance width="1067"/>
  <unicode hex="00A8"/>
  <outline>
    <contour>
      <point x="528" y="1082" type="move" name="_top"/>
    </contour>
    <contour>
      <point x="274" y="1238" type="curve" smooth="yes"/>
      <point x="365" y="1238"/>
      <point x="419" y="1296"/>
      <point x="419" y="1386" type="curve" smooth="yes"/>
      <point x="419" y="1476"/>
      <point x="365" y="1536"/>
      <point x="274" y="1536" type="curve" smooth="yes"/>
      <point x="180" y="1536"/>
      <point x="127" y="1476"/>
      <point x="127" y="1386" type="curve" smooth="yes"/>
      <point x="127" y="1296"/>
      <point x="181" y="1238"/>
    </contour>
    <contour>
      <point x="774" y="1238" type="curve" smooth="yes"/>
      <point x="866" y="1238"/>
      <point x="920" y="1296"/>
      <point x="920" y="1386" type="curve" smooth="yes"/>
      <point x="920" y="1476"/>
      <point x="866" y="1536"/>
      <point x="774" y="1536" type="curve" smooth="yes"/>
      <point x="681" y="1536"/>
      <point x="625" y="1476"/>
      <point x="625" y="1386" type="curve" smooth="yes"/>
      <point x="625" y="1296"/>
      <point x="681" y="1238"/>
    </contour>
  </outline>
</glyph>
<glyph name="copyright" format="1">
  <advance width="1774"/>
  <unicode hex="00A9"/>
  <outline>
    <contour>
      <point x="882" y="248" type="curve" smooth="yes"/>
      <point x="982" y="248"/>
      <point x="1081" y="275"/>
      <point x="1166" y="328" type="curve"/>
      <point x="1121" y="446" type="line"/>
      <point x="1044" y="403"/>
      <point x="967" y="384"/>
      <point x="894" y="384" type="curve" smooth="yes"/>
      <point x="721" y="384"/>
      <point x="584" y="504"/>
      <point x="584" y="737" type="curve" smooth="yes"/>
      <point x="584" y="965"/>
      <point x="721" y="1086"/>
      <point x="892" y="1086" type="curve" smooth="yes"/>
      <point x="963" y="1086"/>
      <point x="1044" y="1065"/>
      <point x="1118" y="1022" type="curve"/>
      <point x="1166" y="1141" type="line"/>
      <point x="1080" y="1195"/>
      <point x="981" y="1223"/>
      <point x="880" y="1223" type="curve" smooth="yes"/>
      <point x="636" y="1223"/>
      <point x="405" y="1051"/>
      <point x="405" y="735" type="curve" smooth="yes"/>
      <point x="405" y="417"/>
      <point x="637" y="248"/>
    </contour>
    <contour>
      <point x="861" y="95" type="curve" smooth="yes"/>
      <point x="524" y="95"/>
      <point x="240" y="360"/>
      <point x="240" y="728" type="curve" smooth="yes"/>
      <point x="240" y="1097"/>
      <point x="524" y="1361"/>
      <point x="861" y="1361" type="curve" smooth="yes"/>
      <point x="1198" y="1361"/>
      <point x="1483" y="1097"/>
      <point x="1483" y="728" type="curve" smooth="yes"/>
      <point x="1483" y="361"/>
      <point x="1198" y="95"/>
    </contour>
    <contour>
      <point x="861" y="-48" type="curve" smooth="yes"/>
      <point x="1284" y="-48"/>
      <point x="1643" y="276"/>
      <point x="1643" y="728" type="curve" smooth="yes"/>
      <point x="1643" y="1181"/>
      <point x="1284" y="1504"/>
      <point x="861" y="1504" type="curve" smooth="yes"/>
      <point x="439" y="1504"/>
      <point x="83" y="1181"/>
      <point x="83" y="728" type="curve" smooth="yes"/>
      <point x="83" y="276"/>
      <point x="439" y="-48"/>
    </contour>
  </outline>
</glyph>
<glyph name="guillemotleft" format="1">
  <advance width="1188"/>
  <unicode hex="00AB"/>
  <outline>
    <contour>
      <point x="384" y="133" type="line"/>
      <point x="632" y="133" type="line"/>
      <point x="377" y="570" type="line"/>
      <point x="637" y="1006" type="line"/>
      <point x="386" y="1006" type="line"/>
      <point x="114" y="567" type="line"/>
    </contour>
    <contour>
      <point x="824" y="133" type="line"/>
      <point x="1072" y="133" type="line"/>
      <point x="817" y="570" type="line"/>
      <point x="1076" y="1006" type="line"/>
      <point x="826" y="1006" type="line"/>
      <point x="555" y="567" type="line"/>
    </contour>
  </outline>
</glyph>
<glyph name="logicalnot" format="1">
  <advance width="1206"/>
  <unicode hex="00AC"/>
  <outline>
    <contour>
      <point x="894" y="250" type="line"/>
      <point x="1090" y="250" type="line"/>
      <point x="1090" y="844" type="line"/>
      <point x="96" y="844" type="line"/>
      <point x="96" y="644" type="line"/>
      <point x="894" y="644" type="line"/>
    </contour>
  </outline>
</glyph>
<glyph name="uni00AD" format="1">
  <advance width="1020"/>
  <unicode hex="00AD"/>
  <outline>
    <contour>
      <point x="179" y="178" type="line"/>
      <point x="832" y="178" type="line"/>
      <point x="832" y="392" type="line"/>
      <point x="179" y="392" type="line"/>
    </contour>
  </outline>
</glyph>
<glyph name="registered" format="1">
  <advance width="1891"/>
  <unicode hex="00AE"/>
  <outline>
    <contour>
      <point x="608" y="317" type="line"/>
      <point x="768" y="317" type="line"/>
      <point x="768" y="710" type="line"/>
      <point x="873" y="710" type="line"/>
      <point x="875" y="707"/>
      <point x="1097" y="317"/>
      <point x="1097" y="317" type="curve"/>
      <point x="1284" y="317" type="line"/>
      <point x="1284" y="317"/>
      <point x="1046" y="713"/>
      <point x="1040" y="721" type="curve"/>
      <point x="1188" y="757"/>
      <point x="1240" y="828"/>
      <point x="1240" y="950" type="curve" smooth="yes"/>
      <point x="1240" y="1147"/>
      <point x="1106" y="1191"/>
      <point x="895" y="1191" type="curve" smooth="yes"/>
      <point x="608" y="1191" type="line"/>
    </contour>
    <contour>
      <point x="768" y="822" type="line"/>
      <point x="768" y="1066" type="line"/>
      <point x="813" y="1066"/>
      <point x="899" y="1067"/>
      <point x="913" y="1067" type="curve" smooth="yes"/>
      <point x="1034" y="1067"/>
      <point x="1080" y="1055"/>
      <point x="1080" y="944" type="curve" smooth="yes"/>
      <point x="1080" y="845"/>
      <point x="1019" y="822"/>
      <point x="879" y="822" type="curve" smooth="yes"/>
    </contour>
    <contour>
      <point x="905" y="95" type="curve" smooth="yes"/>
      <point x="571" y="95"/>
      <point x="290" y="360"/>
      <point x="290" y="729" type="curve" smooth="yes"/>
      <point x="290" y="1097"/>
      <point x="571" y="1361"/>
      <point x="905" y="1361" type="curve" smooth="yes"/>
      <point x="1241" y="1361"/>
      <point x="1523" y="1096"/>
      <point x="1523" y="729" type="curve" smooth="yes"/>
      <point x="1523" y="360"/>
      <point x="1241" y="95"/>
    </contour>
    <contour>
      <point x="905" y="-48" type="curve" smooth="yes"/>
      <point x="1326" y="-48"/>
      <point x="1682" y="276"/>
      <point x="1682" y="729" type="curve" smooth="yes"/>
      <point x="1682" y="1180"/>
      <point x="1326" y="1504"/>
      <point x="905" y="1504" type="curve" smooth="yes"/>
      <point x="485" y="1504"/>
      <point x="130" y="1180"/>
      <point x="130" y="729" type="curve" smooth="yes"/>
      <point x="130" y="276"/>
      <point x="485" y="-48"/>
    </contour>
  </outline>
</glyph>
<glyph name="macron" format="1">
  <advance width="1062"/>
  <unicode hex="00AF"/>
  <outline>
    <contour>
      <point x="530" y="1077" type="move" name="_top"/>
    </contour>
    <contour>
      <point x="519" y="1343" type="move" name="_mid"/>
    </contour>
    <contour>
      <point x="182" y="1279" type="line"/>
      <point x="868" y="1279" type="line"/>
      <point x="868" y="1420" type="line"/>
      <point x="182" y="1420" type="line"/>
    </contour>
  </outline>
</glyph>
<glyph name="degree" format="1">
  <advance width="838"/>
  <unicode hex="00B0"/>
  <outline>
    <contour>
      <point x="424" y="1042" type="curve" smooth="yes"/>
      <point x="342" y="1042"/>
      <point x="270" y="1101"/>
      <point x="270" y="1206" type="curve" smooth="yes"/>
      <point x="270" y="1306"/>
      <point x="343" y="1365"/>
      <point x="425" y="1365" type="curve" smooth="yes"/>
      <point x="503" y="1365"/>
      <point x="577" y="1306"/>
      <point x="577" y="1206" type="curve" smooth="yes"/>
      <point x="577" y="1101"/>
      <point x="505" y="1042"/>
    </contour>
    <contour>
      <point x="424" y="898" type="curve" smooth="yes"/>
      <point x="620" y="898"/>
      <point x="737" y="1047"/>
      <point x="737" y="1207" type="curve" smooth="yes"/>
      <point x="737" y="1371"/>
      <point x="616" y="1505"/>
      <point x="424" y="1505" type="curve" smooth="yes"/>
      <point x="230" y="1505"/>
      <point x="112" y="1371"/>
      <point x="112" y="1207" type="curve" smooth="yes"/>
      <point x="112" y="1044"/>
      <point x="227" y="898"/>
    </contour>
  </outline>
</glyph>
<glyph name="plusminus" format="1">
  <advance width="1136"/>
  <unicode hex="00B1"/>
  <outline>
    <contour>
      <point x="466" y="304" type="line"/>
      <point x="679" y="304" type="line"/>
      <point x="679" y="648" type="line"/>
      <point x="1037" y="648" type="line"/>
      <point x="1037" y="856" type="line"/>
      <point x="679" y="856" type="line"/>
      <point x="679" y="1206" type="line"/>
      <point x="466" y="1206" type="line"/>
      <point x="466" y="856" type="line"/>
      <point x="108" y="856" type="line"/>
      <point x="108" y="648" type="line"/>
      <point x="466" y="648" type="line"/>
    </contour>
    <contour>
      <point x="105" y="0" type="line"/>
      <point x="1042" y="0" type="line"/>
      <point x="1042" y="185" type="line"/>
      <point x="105" y="185" type="line"/>
    </contour>
  </outline>
</glyph>
<glyph name="uni00B2" format="1">
  <advance width="832"/>
  <unicode hex="00B2"/>
  <outline>
    <contour>
      <point x="156" y="605" type="line"/>
      <point x="704" y="605" type="line"/>
      <point x="721" y="753" type="line"/>
      <point x="421" y="753" type="line"/>
      <point x="546" y="867"/>
      <point x="502" y="812"/>
      <point x="599" y="908" type="curve" smooth="yes"/>
      <point x="672" y="983"/>
      <point x="722" y="1090"/>
      <point x="722" y="1201" type="curve" smooth="yes"/>
      <point x="722" y="1381"/>
      <point x="582" y="1484"/>
      <point x="446" y="1484" type="curve" smooth="yes"/>
      <point x="317" y="1484"/>
      <point x="218" y="1442"/>
      <point x="153" y="1352" type="curve"/>
      <point x="230" y="1229" type="line"/>
      <point x="275" y="1290"/>
      <point x="349" y="1323"/>
      <point x="426" y="1323" type="curve" smooth="yes"/>
      <point x="485" y="1323"/>
      <point x="545" y="1274"/>
      <point x="545" y="1197" type="curve" smooth="yes"/>
      <point x="545" y="1158"/>
      <point x="487" y="1078"/>
      <point x="461" y="1039" type="curve" smooth="yes"/>
      <point x="275" y="832"/>
      <point x="251" y="850"/>
      <point x="156" y="752" type="curve"/>
    </contour>
  </outline>
</glyph>
<glyph name="uni00B3" format="1">
  <advance width="881"/>
  <unicode hex="00B3"/>
  <outline>
    <contour>
      <point x="432" y="589" type="curve" smooth="yes"/>
      <point x="610" y="589"/>
      <point x="767" y="676"/>
      <point x="767" y="856" type="curve" smooth="yes"/>
      <point x="767" y="956"/>
      <point x="709" y="1046"/>
      <point x="611" y="1065" type="curve"/>
      <point x="713" y="1086"/>
      <point x="749" y="1168"/>
      <point x="751" y="1252" type="curve" smooth="yes"/>
      <point x="751" y="1418"/>
      <point x="619" y="1481"/>
      <point x="469" y="1481" type="curve" smooth="yes"/>
      <point x="358" y="1481"/>
      <point x="243" y="1448"/>
      <point x="160" y="1393" type="curve"/>
      <point x="217" y="1279" type="line"/>
      <point x="285" y="1320"/>
      <point x="364" y="1343"/>
      <point x="437" y="1343" type="curve" smooth="yes"/>
      <point x="523" y="1343"/>
      <point x="588" y="1310"/>
      <point x="588" y="1233" type="curve" smooth="yes"/>
      <point x="588" y="1169"/>
      <point x="566" y="1128"/>
      <point x="433" y="1128" type="curve" smooth="yes"/>
      <point x="312" y="1128" type="line"/>
      <point x="312" y="994" type="line"/>
      <point x="431" y="995" type="line"/>
      <point x="556" y="995"/>
      <point x="606" y="941"/>
      <point x="606" y="864" type="curve" smooth="yes"/>
      <point x="606" y="770"/>
      <point x="522" y="728"/>
      <point x="426" y="728" type="curve" smooth="yes"/>
      <point x="345" y="728"/>
      <point x="264" y="755"/>
      <point x="211" y="799" type="curve"/>
      <point x="151" y="665" type="line"/>
      <point x="232" y="615"/>
      <point x="334" y="589"/>
    </contour>
  </outline>
</glyph>
<glyph name="uni00B5" format="1">
  <advance width="1230"/>
  <unicode hex="00B5"/>
  <outline>
    <contour>
      <point x="118" y="613" type="line"/>
      <point x="118" y="-316" type="line"/>
      <point x="425" y="-316" type="line"/>
      <point x="425" y="613" type="line"/>
    </contour>
    <component base="u"/>
  </outline>
</glyph>
<glyph name="paragraph" format="1">
  <advance width="1224"/>
  <unicode hex="00B6"/>
  <outline>
    <contour>
      <point x="519" y="-244" type="line"/>
      <point x="687" y="-244" type="line"/>
      <point x="687" y="1310" type="line"/>
      <point x="870" y="1310" type="line"/>
      <point x="870" y="-244" type="line"/>
      <point x="1038" y="-244" type="line"/>
      <point x="1038" y="1456" type="line"/>
      <point x="638" y="1456" type="line" smooth="yes"/>
      <point x="243" y="1456"/>
      <point x="106" y="1319"/>
      <point x="106" y="1067" type="curve" smooth="yes"/>
      <point x="106" y="875"/>
      <point x="234" y="699"/>
      <point x="519" y="699" type="curve"/>
    </contour>
  </outline>
</glyph>
<glyph name="cedilla" format="1">
  <advance width="743"/>
  <unicode hex="00B8"/>
  <outline>
    <contour>
      <point x="490" y="20" type="move" name="_bot"/>
    </contour>
    <contour>
      <point x="428" y="-415" type="curve" smooth="yes"/>
      <point x="570" y="-415"/>
      <point x="682" y="-338"/>
      <point x="682" y="-206" type="curve" smooth="yes"/>
      <point x="682" y="-96"/>
      <point x="613" y="-37"/>
      <point x="515" y="-37" type="curve" smooth="yes"/>
      <point x="479" y="-37"/>
      <point x="440" y="-44"/>
      <point x="399" y="-60" type="curve"/>
      <point x="399" y="-128" type="line"/>
      <point x="413" y="-125"/>
      <point x="425" y="-125"/>
      <point x="436" y="-125" type="curve" smooth="yes"/>
      <point x="503" y="-125"/>
      <point x="528" y="-154"/>
      <point x="529" y="-198" type="curve" smooth="yes"/>
      <point x="529" y="-248"/>
      <point x="487" y="-288"/>
      <point x="409" y="-288" type="curve" smooth="yes"/>
      <point x="378" y="-288"/>
      <point x="341" y="-281"/>
      <point x="300" y="-266" type="curve"/>
      <point x="260" y="-380" type="line"/>
      <point x="316" y="-404"/>
      <point x="373" y="-415"/>
    </contour>
  </outline>
</glyph>
<glyph name="uni00B9" format="1">
  <advance width="863"/>
  <unicode hex="00B9"/>
  <outline>
    <contour>
      <point x="242" y="571" type="line"/>
      <point x="721" y="571" type="line"/>
      <point x="721" y="730" type="line"/>
      <point x="577" y="730" type="line"/>
      <point x="577" y="1465" type="line"/>
      <point x="428" y="1465" type="line"/>
      <point x="400" y="1448"/>
      <point x="277" y="1377"/>
      <point x="227" y="1351" type="curve"/>
      <point x="227" y="1192" type="line"/>
      <point x="248" y="1200"/>
      <point x="348" y="1249"/>
      <point x="383" y="1267" type="curve"/>
      <point x="383" y="730" type="line"/>
      <point x="242" y="730" type="line"/>
    </contour>
  </outline>
</glyph>
<glyph name="ordmasculine" format="1">
  <advance width="1029"/>
  <unicode hex="00BA"/>
  <outline>
    <contour>
      <point x="508" y="829" type="curve" smooth="yes"/>
      <point x="389" y="829"/>
      <point x="331" y="916"/>
      <point x="331" y="1083" type="curve" smooth="yes"/>
      <point x="331" y="1252"/>
      <point x="389" y="1342"/>
      <point x="508" y="1342" type="curve" smooth="yes"/>
      <point x="631" y="1342"/>
      <point x="693" y="1252"/>
      <point x="693" y="1082" type="curve" smooth="yes"/>
      <point x="693" y="916"/>
      <point x="633" y="829"/>
    </contour>
    <contour>
      <point x="508" y="641" type="curve" smooth="yes"/>
      <point x="771" y="641"/>
      <point x="923" y="812"/>
      <point x="923" y="1083" type="curve" smooth="yes"/>
      <point x="923" y="1361"/>
      <point x="778" y="1530"/>
      <point x="508" y="1530" type="curve" smooth="yes"/>
      <point x="241" y="1530"/>
      <point x="94" y="1360"/>
      <point x="94" y="1083" type="curve" smooth="yes"/>
      <point x="94" y="810"/>
      <point x="241" y="641"/>
    </contour>
  </outline>
</glyph>
<glyph name="onequarter" format="1">
  <advance width="1795"/>
  <unicode hex="00BC"/>
  <outline>
    <contour>
      <point x="117" y="599" type="line"/>
      <point x="587" y="599" type="line"/>
      <point x="587" y="749" type="line"/>
      <point x="451" y="749" type="line"/>
      <point x="451" y="1501" type="line"/>
      <point x="303" y="1501" type="line"/>
      <point x="273" y="1483"/>
      <point x="149" y="1411"/>
      <point x="101" y="1389" type="curve"/>
      <point x="101" y="1238" type="line"/>
      <point x="116" y="1243"/>
      <point x="236" y="1295"/>
      <point x="272" y="1313" type="curve"/>
      <point x="272" y="749" type="line"/>
      <point x="117" y="749" type="line"/>
    </contour>
    <contour>
      <point x="1414" y="0" type="line"/>
      <point x="1578" y="0" type="line"/>
      <point x="1578" y="180" type="line"/>
      <point x="1702" y="180" type="line"/>
      <point x="1703" y="314" type="line"/>
      <point x="1578" y="314" type="line"/>
      <point x="1578" y="873" type="line"/>
      <point x="1404" y="873" type="line"/>
      <point x="1029" y="310" type="line"/>
      <point x="1029" y="180" type="line"/>
      <point x="1414" y="180" type="line"/>
    </contour>
    <contour>
      <point x="347" y="0" type="line"/>
      <point x="555" y="0" type="line"/>
      <point x="1533" y="1501" type="line"/>
      <point x="1332" y="1501" type="line"/>
    </contour>
    <contour>
      <point x="1193" y="314" type="line"/>
      <point x="1414" y="652" type="line"/>
      <point x="1414" y="314" type="line"/>
    </contour>
  </outline>
</glyph>
<glyph name="onehalf" format="1">
  <advance width="1874"/>
  <unicode hex="00BD"/>
  <outline>
    <contour>
      <point x="1246" y="0" type="line"/>
      <point x="1781" y="0" type="line"/>
      <point x="1787" y="145" type="line"/>
      <point x="1443" y="145" type="line"/>
      <point x="1620" y="314" type="line" smooth="yes"/>
      <point x="1731" y="421"/>
      <point x="1781" y="514"/>
      <point x="1781" y="623" type="curve" smooth="yes"/>
      <point x="1781" y="777"/>
      <point x="1662" y="882"/>
      <point x="1493" y="882" type="curve" smooth="yes"/>
      <point x="1345" y="882"/>
      <point x="1238" y="802"/>
      <point x="1175" y="717" type="curve"/>
      <point x="1274" y="611" type="line"/>
      <point x="1328" y="680"/>
      <point x="1401" y="724"/>
      <point x="1482" y="724" type="curve" smooth="yes"/>
      <point x="1550" y="724"/>
      <point x="1605" y="682"/>
      <point x="1605" y="611" type="curve" smooth="yes"/>
      <point x="1605" y="557"/>
      <point x="1574" y="500"/>
      <point x="1507" y="431" type="curve" smooth="yes"/>
      <point x="1220" y="139" type="line"/>
    </contour>
    <contour>
      <point x="118" y="599" type="line"/>
      <point x="590" y="599" type="line"/>
      <point x="590" y="748" type="line"/>
      <point x="453" y="748" type="line"/>
      <point x="453" y="1501" type="line"/>
      <point x="305" y="1501" type="line"/>
      <point x="275" y="1483"/>
      <point x="151" y="1411"/>
      <point x="103" y="1389" type="curve"/>
      <point x="103" y="1239" type="line"/>
      <point x="118" y="1244"/>
      <point x="238" y="1296"/>
      <point x="273" y="1314" type="curve"/>
      <point x="273" y="748" type="line"/>
      <point x="118" y="748" type="line"/>
    </contour>
    <contour>
      <point x="347" y="0" type="line"/>
      <point x="554" y="0" type="line"/>
      <point x="1532" y="1501" type="line"/>
      <point x="1332" y="1501" type="line"/>
    </contour>
  </outline>
</glyph>
<glyph name="threequarters" format="1">
  <advance width="1799"/>
  <unicode hex="00BE"/>
  <outline>
    <contour>
      <point x="344" y="609" type="curve" smooth="yes"/>
      <point x="520" y="609"/>
      <point x="677" y="696"/>
      <point x="677" y="881" type="curve" smooth="yes"/>
      <point x="677" y="976"/>
      <point x="622" y="1067"/>
      <point x="520" y="1089" type="curve"/>
      <point x="625" y="1109"/>
      <point x="657" y="1201"/>
      <point x="658" y="1277" type="curve" smooth="yes"/>
      <point x="658" y="1439"/>
      <point x="526" y="1504"/>
      <point x="378" y="1504" type="curve" smooth="yes"/>
      <point x="274" y="1504"/>
      <point x="163" y="1473"/>
      <point x="80" y="1420" type="curve"/>
      <point x="137" y="1302" type="line"/>
      <point x="209" y="1342"/>
      <point x="286" y="1362"/>
      <point x="349" y="1362" type="curve" smooth="yes"/>
      <point x="430" y="1362"/>
      <point x="490" y="1329"/>
      <point x="490" y="1255" type="curve" smooth="yes"/>
      <point x="490" y="1191"/>
      <point x="465" y="1152"/>
      <point x="340" y="1152" type="curve" smooth="yes"/>
      <point x="225" y="1152" type="line"/>
      <point x="225" y="1013" type="line"/>
      <point x="345" y="1015" type="line"/>
      <point x="463" y="1015"/>
      <point x="511" y="964"/>
      <point x="511" y="886" type="curve" smooth="yes"/>
      <point x="511" y="791"/>
      <point x="431" y="752"/>
      <point x="338" y="752" type="curve" smooth="yes"/>
      <point x="267" y="752"/>
      <point x="182" y="783"/>
      <point x="132" y="817" type="curve"/>
      <point x="73" y="681" type="line"/>
      <point x="154" y="633"/>
      <point x="252" y="609"/>
    </contour>
    <contour>
      <point x="1431" y="0" type="line"/>
      <point x="1596" y="0" type="line"/>
      <point x="1596" y="180" type="line"/>
      <point x="1720" y="180" type="line"/>
      <point x="1721" y="314" type="line"/>
      <point x="1596" y="314" type="line"/>
      <point x="1596" y="873" type="line"/>
      <point x="1421" y="873" type="line"/>
      <point x="1046" y="310" type="line"/>
      <point x="1046" y="180" type="line"/>
      <point x="1431" y="180" type="line"/>
    </contour>
    <contour>
      <point x="368" y="0" type="line"/>
      <point x="576" y="0" type="line"/>
      <point x="1554" y="1501" type="line"/>
      <point x="1353" y="1501" type="line"/>
    </contour>
    <contour>
      <point x="1211" y="314" type="line"/>
      <point x="1432" y="652" type="line"/>
      <point x="1432" y="314" type="line"/>
    </contour>
  </outline>
</glyph>
<glyph name="Oslash" format="1">
  <advance width="1655"/>
  <unicode hex="00D8"/>
  <outline>
    <contour>
      <point x="828" y="1456" type="move" name="top"/>
    </contour>
    <contour>
      <point x="536" y="-255" type="line"/>
      <point x="633" y="-3" type="line"/>
      <point x="693" y="-15"/>
      <point x="758" y="-21"/>
      <point x="828" y="-21" type="curve" smooth="yes"/>
      <point x="1283" y="-21"/>
      <point x="1527" y="252"/>
      <point x="1527" y="723" type="curve" smooth="yes"/>
      <point x="1527" y="1056"/>
      <point x="1404" y="1294"/>
      <point x="1173" y="1405" type="curve"/>
      <point x="1274" y="1669" type="line"/>
      <point x="1137" y="1722" type="line"/>
      <point x="1034" y="1452" type="line"/>
      <point x="971" y="1469"/>
      <point x="902" y="1476"/>
      <point x="828" y="1476" type="curve" smooth="yes"/>
      <point x="375" y="1476"/>
      <point x="125" y="1196"/>
      <point x="125" y="722" type="curve" smooth="yes"/>
      <point x="125" y="382"/>
      <point x="255" y="145"/>
      <point x="499" y="40" type="curve"/>
      <point x="405" y="-207" type="line"/>
    </contour>
    <contour>
      <point x="606" y="322" type="line"/>
      <point x="523" y="403"/>
      <point x="485" y="542"/>
      <point x="485" y="721" type="curve" smooth="yes"/>
      <point x="485" y="1037"/>
      <point x="599" y="1230"/>
      <point x="828" y="1230" type="curve" smooth="yes"/>
      <point x="870" y="1230"/>
      <point x="909" y="1223"/>
      <point x="943" y="1211" type="curve"/>
    </contour>
    <contour>
      <point x="828" y="225" type="curve" smooth="yes"/>
      <point x="791" y="225"/>
      <point x="757" y="230"/>
      <point x="726" y="239" type="curve"/>
      <point x="1062" y="1116" type="line"/>
      <point x="1133" y="1030"/>
      <point x="1166" y="894"/>
      <point x="1166" y="721" type="curve" smooth="yes"/>
      <point x="1166" y="409"/>
      <point x="1059" y="225"/>
    </contour>
  </outline>
</glyph>
<glyph name="germandbls" format="1">
  <advance width="1326"/>
  <unicode hex="00DF"/>
  <outline>
    <contour>
      <point x="899" y="-20" type="curve" smooth="yes"/>
      <point x="1153" y="-20"/>
      <point x="1276" y="105"/>
      <point x="1276" y="320" type="curve" smooth="yes"/>
      <point x="1276" y="667"/>
      <point x="895" y="736"/>
      <point x="895" y="802" type="curve" smooth="yes"/>
      <point x="895" y="858"/>
      <point x="1111" y="944"/>
      <point x="1111" y="1173" type="curve" smooth="yes"/>
      <point x="1111" y="1412"/>
      <point x="905" y="1539"/>
      <point x="641" y="1539" type="curve" smooth="yes"/>
      <point x="339" y="1539"/>
      <point x="130" y="1360"/>
      <point x="130" y="1050" type="curve" smooth="yes"/>
      <point x="130" y="0" type="line"/>
      <point x="451" y="0" type="line"/>
      <point x="451" y="1017" type="line" smooth="yes"/>
      <point x="451" y="1198"/>
      <point x="514" y="1314"/>
      <point x="659" y="1314" type="curve" smooth="yes"/>
      <point x="754" y="1314"/>
      <point x="816" y="1267"/>
      <point x="816" y="1170" type="curve" smooth="yes"/>
      <point x="816" y="997"/>
      <point x="640" y="947"/>
      <point x="640" y="774" type="curve" smooth="yes"/>
      <point x="640" y="581"/>
      <point x="938" y="547"/>
      <point x="938" y="326" type="curve" smooth="yes"/>
      <point x="938" y="243"/>
      <point x="889" y="201"/>
      <point x="808" y="201" type="curve" smooth="yes"/>
      <point x="736" y="201"/>
      <point x="654" y="229"/>
      <point x="614" y="252" type="curve"/>
      <point x="553" y="52" type="line"/>
      <point x="670" y="4"/>
      <point x="797" y="-20"/>
    </contour>
  </outline>
</glyph>
<glyph name="eth" format="1">
  <advance width="1226"/>
  <unicode hex="00F0"/>
  <outline>
    <contour>
      <point x="615" y="-23" type="curve" smooth="yes"/>
      <point x="960" y="-23"/>
      <point x="1129" y="187"/>
      <point x="1136" y="495" type="curve" smooth="yes"/>
      <point x="1140" y="659"/>
      <point x="1095" y="799"/>
      <point x="1024" y="913" type="curve" smooth="yes"/>
      <point x="947" y="1038"/>
      <point x="839" y="1153"/>
      <point x="697" y="1299" type="curve"/>
      <point x="936" y="1390" type="line"/>
      <point x="839" y="1562" type="line"/>
      <point x="547" y="1447" type="line"/>
      <point x="422" y="1567" type="line"/>
      <point x="122" y="1567" type="line"/>
      <point x="339" y="1362" type="line"/>
      <point x="154" y="1288" type="line"/>
      <point x="237" y="1117" type="line"/>
      <point x="480" y="1210" type="line"/>
      <point x="591" y="1105"/>
      <point x="691" y="990"/>
      <point x="745" y="902" type="curve"/>
      <point x="699" y="929"/>
      <point x="615" y="954"/>
      <point x="560" y="954" type="curve" smooth="yes"/>
      <point x="271" y="954"/>
      <point x="88" y="764"/>
      <point x="88" y="478" type="curve" smooth="yes"/>
      <point x="88" y="187"/>
      <point x="298" y="-23"/>
    </contour>
    <contour>
      <point x="620" y="199" type="curve" smooth="yes"/>
      <point x="455" y="199"/>
      <point x="364" y="321"/>
      <point x="364" y="484" type="curve" smooth="yes"/>
      <point x="364" y="648"/>
      <point x="453" y="762"/>
      <point x="615" y="762" type="curve" smooth="yes"/>
      <point x="778" y="762"/>
      <point x="871" y="639"/>
      <point x="871" y="481" type="curve" smooth="yes"/>
      <point x="871" y="308"/>
      <point x="782" y="199"/>
    </contour>
  </outline>
</glyph>
<glyph name="divide" format="1">
  <advance width="1252"/>
  <unicode hex="00F7"/>
  <outline>
    <contour>
      <point x="480" y="21" type="line"/>
      <point x="751" y="21" type="line"/>
      <point x="751" y="300" type="line"/>
      <point x="480" y="300" type="line"/>
    </contour>
    <contour>
      <point x="87" y="493" type="line"/>
      <point x="1144" y="493" type="line"/>
      <point x="1144" y="691" type="line"/>
      <point x="87" y="691" type="line"/>
    </contour>
    <contour>
      <point x="480" y="886" type="line"/>
      <point x="759" y="886" type="line"/>
      <point x="759" y="1153" type="line"/>
      <point x="480" y="1153" type="line"/>
    </contour>
  </outline>
</glyph>
<glyph name="oslash" format="1">
  <advance width="1243"/>
  <unicode hex="00F8"/>
  <outline>
    <contour>
      <point x="298" y="-174" type="line"/>
      <point x="1037" y="1208" type="line"/>
      <point x="957" y="1256" type="line"/>
      <point x="223" y="-125" type="line"/>
    </contour>
    <component base="o"/>
  </outline>
</glyph>
<glyph name="kgreenlandic" format="1">
  <advance width="1159"/>
  <unicode hex="0138"/>
  <outline>
    <contour>
      <point x="121" y="0" type="line"/>
      <point x="366" y="0" type="line"/>
      <point x="366" y="439" type="line"/>
      <point x="302" y="305" type="line"/>
      <point x="503" y="505" type="line"/>
      <point x="423" y="501" type="line"/>
      <point x="804" y="0" type="line"/>
      <point x="1085" y="0" type="line"/>
      <point x="1085" y="11" type="line"/>
      <point x="599" y="645" type="line"/>
      <point x="587" y="524" type="line"/>
      <point x="1059" y="1062" type="line"/>
      <point x="1059" y="1082" type="line"/>
      <point x="774" y="1082" type="line"/>
      <point x="316" y="548" type="line"/>
      <point x="359" y="553" type="line"/>
      <point x="366" y="818" type="line"/>
      <point x="366" y="1082" type="line"/>
      <point x="121" y="1082" type="line"/>
    </contour>
  </outline>
</glyph>
<glyph name="oe" format="1">
  <advance width="1863"/>
  <unicode hex="0153"/>
  <outline>
    <contour>
      <point x="1670" y="266" type="line"/>
      <point x="1622" y="221"/>
      <point x="1513" y="177"/>
      <point x="1399" y="176" type="curve" smooth="yes"/>
      <point x="1263" y="175"/>
      <point x="1105" y="231"/>
      <point x="1081" y="456" type="curve"/>
      <point x="1757" y="456" type="line"/>
      <point x="1757" y="456"/>
      <point x="1765" y="507"/>
      <point x="1765" y="579" type="curve" smooth="yes"/>
      <point x="1761" y="890"/>
      <point x="1617" y="1093"/>
      <point x="1336" y="1099" type="curve" smooth="yes"/>
      <point x="1184" y="1102"/>
      <point x="1032" y="1007"/>
      <point x="959" y="891" type="curve"/>
      <point x="891" y="1005"/>
      <point x="740" y="1099"/>
      <point x="577" y="1099" type="curve" smooth="yes"/>
      <point x="267" y="1099"/>
      <point x="75" y="881"/>
      <point x="75" y="543" type="curve" smooth="yes"/>
      <point x="75" y="205"/>
      <point x="267" y="-17"/>
      <point x="577" y="-17" type="curve" smooth="yes"/>
      <point x="738" y="-17"/>
      <point x="885" y="74"/>
      <point x="956" y="186" type="curve"/>
      <point x="1042" y="63"/>
      <point x="1213" y="-23"/>
      <point x="1394" y="-17" type="curve" smooth="yes"/>
      <point x="1557" y="-11"/>
      <point x="1686" y="42"/>
      <point x="1749" y="103" type="curve"/>
      <point x="1683" y="266" type="line"/>
    </contour>
    <contour>
      <point x="577" y="176" type="curve" smooth="yes"/>
      <point x="404" y="176"/>
      <point x="324" y="305"/>
      <point x="324" y="544" type="curve" smooth="yes"/>
      <point x="324" y="780"/>
      <point x="404" y="906"/>
      <point x="577" y="906" type="curve" smooth="yes"/>
      <point x="749" y="906"/>
      <point x="829" y="780"/>
      <point x="829" y="544" type="curve" smooth="yes"/>
      <point x="829" y="305"/>
      <point x="748" y="176"/>
    </contour>
    <contour>
      <point x="1085" y="618" type="line"/>
      <point x="1097" y="822"/>
      <point x="1215" y="913"/>
      <point x="1336" y="914" type="curve" smooth="yes"/>
      <point x="1464" y="916"/>
      <point x="1537" y="835"/>
      <point x="1547" y="618" type="curve"/>
    </contour>
  </outline>
</glyph>
<glyph name="apostrophemod" format="1">
  <advance width="649"/>
  <unicode hex="02BC"/>
  <outline>
    <contour>
      <point x="63" y="1106" type="curve"/>
      <point x="286" y="1106" type="line"/>
      <point x="286" y="1106"/>
      <point x="355" y="1403"/>
      <point x="385" y="1569" type="curve"/>
      <point x="117" y="1569" type="line"/>
      <point x="108" y="1485"/>
      <point x="63" y="1106"/>
    </contour>
  </outline>
</glyph>
<glyph name="circumflex" format="1">
  <advance width="922"/>
  <unicode hex="02C6"/>
  <outline>
    <contour>
      <point x="445" y="1082" type="move" name="_top"/>
    </contour>
    <contour>
      <point x="96" y="1294" type="line"/>
      <point x="342" y="1294" type="line"/>
      <point x="445" y="1506" type="line"/>
      <point x="547" y="1294" type="line"/>
      <point x="793" y="1294" type="line"/>
      <point x="585" y="1679" type="line"/>
      <point x="305" y="1679" type="line"/>
    </contour>
  </outline>
</glyph>
<glyph name="caron" format="1">
  <advance width="946"/>
  <unicode hex="02C7"/>
  <outline>
    <contour>
      <point x="452" y="1082" type="move" name="_top"/>
    </contour>
    <contour>
      <point x="306" y="1269" type="line"/>
      <point x="586" y="1269" type="line"/>
      <point x="796" y="1654" type="line"/>
      <point x="549" y="1654" type="line"/>
      <point x="447" y="1453" type="line"/>
      <point x="344" y="1654" type="line"/>
      <point x="97" y="1654" type="line"/>
    </contour>
  </outline>
</glyph>
<glyph name="dotaccent" format="1">
  <advance width="596"/>
  <unicode hex="02D9"/>
  <outline>
    <contour>
      <point x="299" y="1082" type="move" name="_top"/>
    </contour>
    <contour>
      <point x="301" y="1274" type="curve" smooth="yes"/>
      <point x="416" y="1274"/>
      <point x="488" y="1344"/>
      <point x="488" y="1453" type="curve" smooth="yes"/>
      <point x="488" y="1556"/>
      <point x="416" y="1625"/>
      <point x="301" y="1625" type="curve" smooth="yes"/>
      <point x="186" y="1625"/>
      <point x="114" y="1556"/>
      <point x="114" y="1453" type="curve" smooth="yes"/>
      <point x="114" y="1344"/>
      <point x="186" y="1274"/>
    </contour>
  </outline>
</glyph>
<glyph name="ring" format="1">
  <advance width="794"/>
  <unicode hex="02DA"/>
  <outline>
    <contour>
      <point x="375" y="1077" type="move" name="_top"/>
    </contour>
    <contour>
      <point x="376" y="1301" type="curve" smooth="yes"/>
      <point x="314" y="1301"/>
      <point x="285" y="1349"/>
      <point x="285" y="1407" type="curve" smooth="yes"/>
      <point x="285" y="1460"/>
      <point x="318" y="1512"/>
      <point x="376" y="1512" type="curve" smooth="yes"/>
      <point x="436" y="1512"/>
      <point x="471" y="1460"/>
      <point x="471" y="1407" type="curve" smooth="yes"/>
      <point x="471" y="1351"/>
      <point x="436" y="1301"/>
    </contour>
    <contour>
      <point x="376" y="1193" type="curve" smooth="yes"/>
      <point x="513" y="1193"/>
      <point x="598" y="1295"/>
      <point x="598" y="1408" type="curve" smooth="yes"/>
      <point x="598" y="1519"/>
      <point x="515" y="1620"/>
      <point x="376" y="1620" type="curve" smooth="yes"/>
      <point x="240" y="1620"/>
      <point x="157" y="1522"/>
      <point x="157" y="1408" type="curve" smooth="yes"/>
      <point x="157" y="1295"/>
      <point x="240" y="1193"/>
    </contour>
  </outline>
</glyph>
<glyph name="ogonek" format="1">
  <advance width="766"/>
  <unicode hex="02DB"/>
  <outline>
    <contour>
      <point x="484" y="0" type="move" name="_ogonek"/>
    </contour>
    <contour>
      <point x="449" y="-443" type="curve" smooth="yes"/>
      <point x="512" y="-443"/>
      <point x="576" y="-427"/>
      <point x="634" y="-405" type="curve"/>
      <point x="626" y="-254" type="line"/>
      <point x="613" y="-262"/>
      <point x="553" y="-288"/>
      <point x="497" y="-288" type="curve" smooth="yes"/>
      <point x="455" y="-288"/>
      <point x="425" y="-251"/>
      <point x="425" y="-211" type="curve" smooth="yes"/>
      <point x="425" y="-148"/>
      <point x="467" y="-57"/>
      <point x="545" y="4" type="curve"/>
      <point x="432" y="4" type="line"/>
      <point x="351" y="-39"/>
      <point x="242" y="-130"/>
      <point x="242" y="-262" type="curve" smooth="yes"/>
      <point x="242" y="-384"/>
      <point x="335" y="-443"/>
    </contour>
  </outline>
</glyph>
<glyph name="tilde" format="1">
  <advance width="975"/>
  <unicode hex="02DC"/>
  <outline>
    <contour>
      <point x="501" y="1076" type="move" name="_top"/>
    </contour>
    <contour>
      <point x="153" y="1263" type="curve"/>
      <point x="285" y="1263" type="line"/>
      <point x="300" y="1336"/>
      <point x="323" y="1362"/>
      <point x="358" y="1362" type="curve" smooth="yes"/>
      <point x="427" y="1362"/>
      <point x="529" y="1263"/>
      <point x="640" y="1263" type="curve" smooth="yes"/>
      <point x="782" y="1263"/>
      <point x="830" y="1402"/>
      <point x="830" y="1521" type="curve"/>
      <point x="698" y="1521" type="line"/>
      <point x="684" y="1458"/>
      <point x="664" y="1438"/>
      <point x="636" y="1438" type="curve" smooth="yes"/>
      <point x="579" y="1438"/>
      <point x="490" y="1522"/>
      <point x="355" y="1522" type="curve" smooth="yes"/>
      <point x="203" y="1522"/>
      <point x="153" y="1389"/>
    </contour>
  </outline>
</glyph>
<glyph name="hungarumlaut" format="1">
  <advance width="946"/>
  <unicode hex="02DD"/>
  <outline>
    <contour>
      <point x="390" y="1077" type="move" name="_top"/>
    </contour>
    <contour>
      <point x="129" y="1256" type="line"/>
      <point x="288" y="1256" type="line"/>
      <point x="529" y="1649" type="line"/>
      <point x="281" y="1649" type="line"/>
    </contour>
    <contour>
      <point x="485" y="1256" type="line"/>
      <point x="636" y="1256" type="line"/>
      <point x="904" y="1649" type="line"/>
      <point x="631" y="1649" type="line"/>
    </contour>
  </outline>
</glyph>
<glyph name="commaaccent" format="1">
  <advance width="620"/>
  <unicode hex="0326"/>
  <outline>
    <contour>
      <point x="343" y="0" type="move" name="_bot"/>
    </contour>
    <contour>
      <point x="141" y="-546" type="curve"/>
      <point x="339" y="-546" type="line"/>
      <point x="339" y="-546"/>
      <point x="444" y="-267"/>
      <point x="473" y="-137" type="curve" smooth="yes"/>
      <point x="473" y="-108" type="line"/>
      <point x="217" y="-108" type="line"/>
      <point x="206" y="-186"/>
      <point x="154" y="-474"/>
    </contour>
  </outline>
</glyph>
<glyph name="Delta" format="1">
  <advance width="1334"/>
  <unicode hex="0394"/>
  <outline>
    <contour>
      <point x="23" y="0" type="line"/>
      <point x="1282" y="0" type="line"/>
      <point x="766" y="1518" type="line"/>
      <point x="537" y="1518" type="line"/>
    </contour>
    <contour>
      <point x="314" y="198" type="line"/>
      <point x="651" y="1261" type="line"/>
      <point x="995" y="198" type="line"/>
    </contour>
  </outline>
</glyph>
<glyph name="quotedblbase" format="1">
  <advance width="920"/>
  <unicode hex="201E"/>
  <outline>
    <contour>
      <point x="105" y="-365" type="line"/>
      <point x="296" y="-365" type="line"/>
      <point x="416" y="145" type="line"/>
      <point x="145" y="145" type="line"/>
    </contour>
    <contour>
      <point x="496" y="-365" type="line"/>
      <point x="687" y="-365" type="line"/>
      <point x="807" y="145" type="line"/>
      <point x="535" y="145" type="line"/>
    </contour>
  </outline>
</glyph>
<glyph name="perthousand" format="1">
  <advance width="3027"/>
  <unicode hex="2030"/>
  <outline>
    <contour>
      <point x="2542" y="145" type="curve" smooth="yes"/>
      <point x="2419" y="145"/>
      <point x="2347" y="248"/>
      <point x="2347" y="382" type="curve" smooth="yes"/>
      <point x="2347" y="514"/>
      <point x="2419" y="616"/>
      <point x="2542" y="616" type="curve" smooth="yes"/>
      <point x="2664" y="616"/>
      <point x="2732" y="518"/>
      <point x="2732" y="382" type="curve" smooth="yes"/>
      <point x="2732" y="250"/>
      <point x="2665" y="145"/>
    </contour>
    <contour>
      <point x="2538" y="-30" type="curve" smooth="yes"/>
      <point x="2782" y="-30"/>
      <point x="2936" y="149"/>
      <point x="2936" y="380" type="curve" smooth="yes"/>
      <point x="2936" y="612"/>
      <point x="2785" y="783"/>
      <point x="2538" y="783" type="curve" smooth="yes"/>
      <point x="2296" y="783"/>
      <point x="2141" y="607"/>
      <point x="2141" y="380" type="curve" smooth="yes"/>
      <point x="2141" y="149"/>
      <point x="2292" y="-30"/>
    </contour>
    <component base="percent" xOffset="41"/>
  </outline>
</glyph>
<glyph name="uni2074" format="1">
  <advance width="690"/>
  <unicode hex="2074"/>
  <outline>
    <contour>
      <point x="360" y="590" type="line"/>
      <point x="523" y="590" type="line"/>
      <point x="523" y="776" type="line"/>
      <point x="623" y="776" type="line"/>
      <point x="638" y="913" type="line"/>
      <point x="523" y="913" type="line"/>
      <point x="523" y="1466" type="line"/>
      <point x="351" y="1466" type="line"/>
      <point x="-1" y="920" type="line"/>
      <point x="-1" y="776" type="line"/>
      <point x="360" y="776" type="line"/>
    </contour>
    <contour>
      <point x="178" y="913" type="line"/>
      <point x="361" y="1248" type="line"/>
      <point x="361" y="913" type="line"/>
    </contour>
  </outline>
</glyph>
<glyph name="Euro" format="1">
  <advance width="1391"/>
  <unicode hex="20AC"/>
  <outline>
    <contour>
      <point x="-81" y="527" type="line"/>
      <point x="805" y="527" type="line"/>
      <point x="805" y="671" type="line"/>
      <point x="253" y="671" type="line"/>
      <point x="253" y="805" type="line"/>
      <point x="805" y="805" type="line"/>
      <point x="807" y="950" type="line"/>
      <point x="-79" y="950" type="line"/>
      <point x="-80" y="805" type="line"/>
      <point x="94" y="805" type="line"/>
      <point x="94" y="671" type="line"/>
      <point x="-81" y="671" type="line"/>
    </contour>
    <component base="C" xOffset="-46"/>
  </outline>
</glyph>
<glyph name="uni2113" format="1">
  <advance width="1318"/>
  <unicode hex="2113"/>
  <outline>
    <contour>
      <point x="581" y="-20" type="curve" smooth="yes"/>
      <point x="847" y="-22"/>
      <point x="1020" y="98"/>
      <point x="1020" y="98" type="curve"/>
      <point x="992" y="278" type="line"/>
      <point x="890" y="233"/>
      <point x="794" y="201"/>
      <point x="717" y="201" type="curve" smooth="yes"/>
      <point x="619" y="202"/>
      <point x="579" y="264"/>
      <point x="617" y="417" type="curve" smooth="yes"/>
      <point x="694" y="730" type="line"/>
      <point x="627" y="617" type="line"/>
      <point x="963" y="865" type="line" smooth="yes"/>
      <point x="1215" y="1051"/>
      <point x="1316" y="1146"/>
      <point x="1316" y="1356" type="curve" smooth="yes"/>
      <point x="1316" y="1582"/>
      <point x="1137" y="1701"/>
      <point x="954" y="1702" type="curve" smooth="yes"/>
      <point x="793" y="1703"/>
      <point x="629" y="1616"/>
      <point x="569" y="1396" type="curve" smooth="yes"/>
      <point x="349" y="585" type="line"/>
      <point x="412" y="692" type="line"/>
      <point x="70" y="441" type="line"/>
      <point x="125" y="334" type="line"/>
      <point x="364" y="501" type="line"/>
      <point x="330" y="529" type="line"/>
      <point x="223" y="154"/>
      <point x="357" y="-18"/>
    </contour>
    <contour>
      <point x="705" y="776" type="line"/>
      <point x="805" y="1200" type="line"/>
      <point x="825" y="1277"/>
      <point x="931" y="1361"/>
      <point x="981" y="1361" type="curve" smooth="yes"/>
      <point x="1104" y="1402"/>
      <point x="1154" y="1391"/>
      <point x="1153" y="1356" type="curve" smooth="yes"/>
      <point x="1152" y="1298"/>
      <point x="1079" y="1204"/>
      <point x="923" y="1113" type="curve" smooth="yes"/>
      <point x="904" y="1113"/>
      <point x="723" y="987"/>
      <point x="716" y="959" type="curve" smooth="yes"/>
    </contour>
  </outline>
</glyph>
<glyph name="trademark" format="1">
  <advance width="2083"/>
  <unicode hex="2122"/>
  <outline>
    <contour>
      <point x="921" y="521" type="line"/>
      <point x="1103" y="521" type="line"/>
      <point x="1119" y="1127" type="line"/>
      <point x="1371" y="606" type="line"/>
      <point x="1474" y="606" type="line"/>
      <point x="1727" y="1125" type="line"/>
      <point x="1743" y="521" type="line"/>
      <point x="1925" y="521" type="line"/>
      <point x="1905" y="1456" type="line"/>
      <point x="1710" y="1456" type="line"/>
      <point x="1424" y="860" type="line"/>
      <point x="1136" y="1456" type="line"/>
      <point x="940" y="1456" type="line"/>
    </contour>
    <contour>
      <point x="352" y="521" type="line"/>
      <point x="546" y="521" type="line"/>
      <point x="546" y="1306" type="line"/>
      <point x="814" y="1306" type="line"/>
      <point x="814" y="1456" type="line"/>
      <point x="85" y="1456" type="line"/>
      <point x="85" y="1306" type="line"/>
      <point x="352" y="1306" type="line"/>
    </contour>
  </outline>
</glyph>
<glyph name="uni2126" format="1">
  <advance width="1751"/>
  <unicode hex="2126"/>
  <outline>
    <contour>
      <point x="107" y="0" type="line"/>
      <point x="791" y="0" type="line"/>
      <point x="791" y="210" type="line"/>
      <point x="582" y="317"/>
      <point x="448" y="527"/>
      <point x="448" y="753" type="curve" smooth="yes"/>
      <point x="448" y="995"/>
      <point x="602" y="1202"/>
      <point x="877" y="1202" type="curve" smooth="yes"/>
      <point x="1149" y="1202"/>
      <point x="1304" y="994"/>
      <point x="1304" y="753" type="curve" smooth="yes"/>
      <point x="1304" y="527"/>
      <point x="1168" y="318"/>
      <point x="963" y="210" type="curve"/>
      <point x="963" y="0" type="line"/>
      <point x="1645" y="0" type="line"/>
      <point x="1645" y="210" type="line"/>
      <point x="1157" y="210" type="line"/>
      <point x="1171" y="108" type="line"/>
      <point x="1460" y="234"/>
      <point x="1639" y="494"/>
      <point x="1639" y="794" type="curve" smooth="yes"/>
      <point x="1639" y="1149"/>
      <point x="1370" y="1488"/>
      <point x="877" y="1488" type="curve" smooth="yes"/>
      <point x="384" y="1488"/>
      <point x="112" y="1148"/>
      <point x="112" y="792" type="curve" smooth="yes"/>
      <point x="112" y="493"/>
      <point x="290" y="234"/>
      <point x="582" y="108" type="curve"/>
      <point x="596" y="210" type="line"/>
      <point x="107" y="210" type="line"/>
    </contour>
  </outline>
</glyph>
<glyph name="partialdiff" format="1">
  <advance width="1340"/>
  <unicode hex="2202"/>
  <outline>
    <contour>
      <point x="539" y="-20" type="curve" smooth="yes"/>
      <point x="916" y="-20"/>
      <point x="1155" y="394"/>
      <point x="1155" y="926" type="curve" smooth="yes"/>
      <point x="1155" y="1313"/>
      <point x="907" y="1561"/>
      <point x="602" y="1561" type="curve" smooth="yes"/>
      <point x="494" y="1561"/>
      <point x="379" y="1529"/>
      <point x="265" y="1463" type="curve"/>
      <point x="320" y="1322" type="line"/>
      <point x="402" y="1369"/>
      <point x="482" y="1391"/>
      <point x="556" y="1391" type="curve" smooth="yes"/>
      <point x="753" y="1391"/>
      <point x="903" y="1237"/>
      <point x="903" y="983" type="curve" smooth="yes"/>
      <point x="903" y="977"/>
      <point x="903" y="965"/>
      <point x="903" y="959" type="curve"/>
      <point x="447" y="937"/>
      <point x="193" y="586"/>
      <point x="193" y="310" type="curve" smooth="yes"/>
      <point x="193" y="129"/>
      <point x="303" y="-20"/>
    </contour>
    <contour>
      <point x="553" y="126" type="curve" smooth="yes"/>
      <point x="497" y="126"/>
      <point x="469" y="185"/>
      <point x="469" y="267" type="curve" smooth="yes"/>
      <point x="469" y="458"/>
      <point x="616" y="784"/>
      <point x="895" y="825" type="curve"/>
      <point x="872" y="542"/>
      <point x="760" y="126"/>
    </contour>
  </outline>
</glyph>
<glyph name="product" format="1">
  <advance width="1574"/>
  <unicode hex="220F"/>
  <outline>
    <contour>
      <point x="205" y="1527" type="line"/>
      <point x="205" y="0" type="line"/>
      <point x="382" y="0" type="line"/>
      <point x="382" y="1367" type="line"/>
      <point x="1197" y="1367" type="line"/>
      <point x="1197" y="0" type="line"/>
      <point x="1375" y="0" type="line"/>
      <point x="1375" y="1527" type="line"/>
    </contour>
  </outline>
</glyph>
<glyph name="approxequal" format="1">
  <advance width="1267"/>
  <unicode hex="2248"/>
  <outline>
    <contour>
      <point x="863" y="337" type="curve" smooth="yes"/>
      <point x="1045" y="337"/>
      <point x="1112" y="447"/>
      <point x="1153" y="608" type="curve"/>
      <point x="1030" y="682" type="line"/>
      <point x="987" y="565"/>
      <point x="922" y="524"/>
      <point x="858" y="524" type="curve" smooth="yes"/>
      <point x="801" y="524"/>
      <point x="735" y="556"/>
      <point x="658" y="597" type="curve" smooth="yes"/>
      <point x="549" y="656"/>
      <point x="484" y="687"/>
      <point x="389" y="687" type="curve" smooth="yes"/>
      <point x="221" y="687"/>
      <point x="125" y="578"/>
      <point x="90" y="413" type="curve"/>
      <point x="226" y="337" type="line"/>
      <point x="251" y="439"/>
      <point x="302" y="500"/>
      <point x="386" y="500" type="curve" smooth="yes"/>
      <point x="441" y="500"/>
      <point x="494" y="470"/>
      <point x="547" y="445" type="curve" smooth="yes"/>
      <point x="681" y="372"/>
      <point x="765" y="337"/>
    </contour>
    <contour>
      <point x="863" y="743" type="curve" smooth="yes"/>
      <point x="1045" y="743"/>
      <point x="1112" y="853"/>
      <point x="1153" y="1014" type="curve"/>
      <point x="1030" y="1087" type="line"/>
      <point x="987" y="971"/>
      <point x="922" y="930"/>
      <point x="858" y="930" type="curve" smooth="yes"/>
      <point x="801" y="930"/>
      <point x="735" y="962"/>
      <point x="658" y="1003" type="curve" smooth="yes"/>
      <point x="549" y="1062"/>
      <point x="484" y="1093"/>
      <point x="389" y="1093" type="curve" smooth="yes"/>
      <point x="221" y="1093"/>
      <point x="125" y="984"/>
      <point x="90" y="819" type="curve"/>
      <point x="226" y="743" type="line"/>
      <point x="251" y="844"/>
      <point x="302" y="907"/>
      <point x="385" y="907" type="curve" smooth="yes"/>
      <point x="441" y="907"/>
      <point x="494" y="877"/>
      <point x="547" y="851" type="curve" smooth="yes"/>
      <point x="681" y="778"/>
      <point x="765" y="743"/>
    </contour>
  </outline>
</glyph>
<glyph name="greaterequal" format="1">
  <advance width="1192"/>
  <unicode hex="2265"/>
  <outline>
    <contour>
      <point x="146" y="219" type="line"/>
      <point x="1061" y="695" type="line"/>
      <point x="1061" y="815" type="line"/>
      <point x="147" y="1305" type="line"/>
      <point x="147" y="1098" type="line"/>
      <point x="839" y="755" type="line"/>
      <point x="146" y="430" type="line"/>
    </contour>
    <contour>
      <point x="136" y="4" type="line"/>
      <point x="1068" y="4" type="line"/>
      <point x="1068" y="170" type="line"/>
      <point x="136" y="171" type="line"/>
    </contour>
  </outline>
</glyph>
<glyph name="lozenge" format="1">
  <advance width="1207"/>
  <unicode hex="25CA"/>
  <outline>
    <contour>
      <point x="533" y="-46" type="line"/>
      <point x="662" y="-46" type="line"/>
      <point x="1106" y="743" type="line"/>
      <point x="672" y="1535" type="line"/>
      <point x="540" y="1535" type="line"/>
      <point x="101" y="742" type="line"/>
    </contour>
    <contour>
      <point x="593" y="153" type="curve"/>
      <point x="430" y="461"/>
      <point x="440" y="435"/>
      <point x="279" y="744" type="curve"/>
      <point x="444" y="1054"/>
      <point x="440" y="1026"/>
      <point x="607" y="1334" type="curve"/>
      <point x="765" y="1023"/>
      <point x="767" y="1052"/>
      <point x="927" y="744" type="curve"/>
      <point x="762" y="434"/>
      <point x="759" y="464"/>
    </contour>
  </outline>
</glyph>
<glyph name="caron.alt" format="1">
  <advance width="640"/>
  <outline>
    <contour>
      <point x="64" y="1082" type="move" name="_caron.alt"/>
    </contour>
    <contour>
      <point x="368" y="1128" type="line"/>
      <point x="552" y="1128" type="line"/>
      <point x="622" y="1555" type="line"/>
      <point x="379" y="1555" type="line"/>
    </contour>
  </outline>
</glyph>
<glyph name="dotlessj" format="1">
  <advance width="681"/>
  <outline>
    <contour>
      <point x="40" y="-529" type="line"/>
      <point x="123" y="-495" type="line"/>
      <point x="381" y="-396"/>
      <point x="525" y="-323"/>
      <point x="525" y="-27" type="curve" smooth="yes"/>
      <point x="525" y="1082" type="line"/>
      <point x="204" y="1082" type="line"/>
      <point x="204" y="5" type="line" smooth="yes"/>
      <point x="204" y="-152"/>
      <point x="187" y="-193"/>
      <point x="22" y="-260" type="curve" smooth="yes"/>
      <point x="-65" y="-296" type="line"/>
    </contour>
  </outline>
</glyph>
<glyph name="middot" format="1">
  <advance width="636"/>
  <outline>
    <contour>
      <point x="307" y="665" type="move" name="_mid"/>
    </contour>
    <component base="period" xOffset="-40" yOffset="509"/>
  </outline>
</glyph>
